<?xml version="1.0" standalone="no"?>
<!DOCTYPE svg PUBLIC "-//W3C//DTD SVG 20010904//EN"
 "http://www.w3.org/TR/2001/REC-SVG-20010904/DTD/svg10.dtd">
<svg version="1.0" xmlns="http://www.w3.org/2000/svg"
 width="341.749176pt" height="757.408404pt" viewBox="0 0 341.749176 757.408404"
 preserveAspectRatio="xMidYMid meet">
<metadata>
Created by Potrace Professional 1.1m
</metadata>
<g transform="translate(-0.084672,757.759776) rotate(-360.00) scale(0.095238,-0.095238)"
fill="#fbad03" stroke="none">
<path d="M1675 7952 c-304 -25 -545 -89 -770 -202 -113 -57 -280 -177 -383
-274 -494 -467 -650 -1190 -412 -1906 146 -438 388 -781 963 -1366 115 -116
208 -217 208 -224 0 -8 -112 -128 -249 -267 -347 -353 -510 -544 -678 -799
-465 -705 -468 -1505 -8 -2161 38 -53 127 -156 200 -228 198 -198 427 -342
678 -426 390 -131 794 -127 1211 12 385 128 663 333 861 634 199 302 308 708
292 1087 -12 289 -74 523 -212 809 -166 342 -408 655 -866 1121 l-215 218 168
171 c334 337 498 521 653 729 268 361 410 687 454 1045 19 148 8 444 -21 580
-136 639 -594 1158 -1197 1359 -216 72 -470 105 -677 88z m375 -795 c193 -49
354 -141 497 -284 190 -189 293 -424 306 -699 16 -365 -141 -720 -497 -1118
-131 -147 -552 -583 -563 -583 -29 0 -478 468 -622 648 -233 291 -370 564
-421 838 -26 141 -17 377 20 500 54 180 127 306 245 424 254 254 675 365 1035
274z m-162 -3752 c120 -109 414 -423 524 -559 227 -282 363 -544 420 -809 14
-66 18 -132 18 -252 -1 -140 -5 -177 -28 -263 -118 -442 -464 -711 -963 -751
-159 -12 -353 26 -512 100 -285 134 -498 387 -581 688 -33 120 -40 365 -15
489 56 277 198 530 476 853 92 106 555 585 565 585 3 0 46 -37 96 -81z"/>
</g>
</svg>
