<?xml version="1.0" encoding="utf-8"?>
<!-- Generator: Adobe Illustrator 25.2.1, SVG Export Plug-In . SVG Version: 6.00 Build 0)  -->
<svg version="1.1" xmlns="http://www.w3.org/2000/svg" xmlns:xlink="http://www.w3.org/1999/xlink" x="0px" y="0px"
	 viewBox="0 0 595.28 841.89" style="enable-background:new 0 0 595.28 841.89;" xml:space="preserve">
<style type="text/css">
	.st0{display:none;}
	.st1{display:inline;}
	.st2{fill:#FEFDFE;}
	.st3{fill:#DF193F;}
	.st4{fill:#FDFDFD;}
	.st5{display:inline;fill:#F99E0B;}
</style>
<g id="Calque_1" class="st0">
</g>
<g id="Calque_2" class="st0">
	<g class="st1">
		<path class="st2" d="M28.41,641.3c9.06-12.22,18.12-24.44,27.18-36.66c0.12-0.16,0.18-0.17,0.34-0.05
			c11.88,8.82,23.76,17.63,35.65,26.44c0.16,0.12,0.17,0.18,0.05,0.34c-9.02,12.15-18.03,24.31-27.04,36.46
			c-0.12,0.16-0.18,0.17-0.34,0.05C52.31,659.02,40.36,650.16,28.41,641.3z M70.76,622.05c-5.27-3.91-10.55-7.8-15.8-11.74
			c-1.08-0.81-2.87-0.49-3.61,0.55c-0.25,0.35-0.51,0.69-0.76,1.03c-4.02,5.43-8.05,10.85-12.07,16.28c-0.85,1.15-0.6,2.8,0.55,3.65
			c2.63,1.95,5.25,3.9,7.89,5.84c0.22,0.16,0.32,0.35,0.36,0.61c0.57,3.83,1.14,7.65,1.71,11.48c0.06,0.42,0.1,0.45,0.52,0.38
			c3.84-0.57,7.69-1.14,11.53-1.71c0.23-0.03,0.4,0.01,0.59,0.14c2.95,2.2,5.91,4.38,8.86,6.58c1.16,0.87,2.83,0.64,3.72-0.55
			c0.27-0.35,0.51-0.72,0.78-1.07c0.6-0.76,1.16-1.55,1.73-2.33c3.34-4.51,6.68-9.01,10.02-13.52c0.17-0.23,0.36-0.47,0.48-0.73
			c0.49-1.03,0.25-2.53-0.85-3.33C81.17,629.8,75.98,625.91,70.76,622.05z"/>
		<path class="st3" d="M70.76,622.05c5.21,3.87,10.41,7.75,15.65,11.58c1.1,0.81,1.34,2.31,0.85,3.33c-0.12,0.26-0.31,0.5-0.48,0.73
			c-3.34,4.51-6.68,9.01-10.02,13.52c-0.58,0.78-1.14,1.56-1.73,2.33c-0.27,0.35-0.52,0.72-0.78,1.07
			c-0.89,1.18-2.56,1.41-3.72,0.55c-2.95-2.2-5.91-4.39-8.86-6.58c-0.19-0.14-0.36-0.18-0.59-0.14c-3.84,0.57-7.69,1.14-11.53,1.71
			c-0.42,0.06-0.45,0.04-0.52-0.38c-0.57-3.83-1.14-7.65-1.71-11.48c-0.04-0.26-0.14-0.45-0.36-0.61c-2.63-1.94-5.26-3.89-7.89-5.84
			c-1.15-0.85-1.4-2.51-0.55-3.65c4.02-5.43,8.05-10.85,12.07-16.28c0.25-0.34,0.51-0.68,0.76-1.03c0.74-1.04,2.53-1.36,3.61-0.55
			C60.21,614.24,65.49,618.14,70.76,622.05z M68.18,634.81c0.35-0.5,0.7-1,0.91-1.58c0.14-0.39,0.26-0.77,0.33-1.19
			c0.12-0.76,0.03-1.49-0.24-2.19c-0.27-0.7-0.73-1.28-1.25-1.81c-0.75-0.75-1.66-1.13-2.69-1.22c-0.64-0.05-1.28,0.07-1.9,0.2
			c-0.12,0.03-0.16,0-0.17-0.13c-0.04-0.37-0.12-0.73-0.17-1.09c-0.15-1.05-0.67-1.91-1.48-2.57c-0.77-0.62-1.66-0.98-2.65-1.09
			c-0.96-0.11-1.83,0.1-2.66,0.59c-0.32,0.19-0.6,0.4-0.87,0.64c-0.53,0.47-1.04,0.97-1.38,1.6c-0.47,0.87-0.76,1.79-0.88,2.77
			c-0.12,0.97-0.08,1.94,0.01,2.91c0.1,0.97,0.3,1.91,0.55,2.85c0.17,0.62,0.36,1.23,0.58,1.83c0.23,0.62,0.51,1.22,0.77,1.82
			c0.14,0.32,0.32,0.59,0.71,0.64c0.61,0.08,1.21,0.19,1.83,0.23c0.81,0.05,1.61,0.08,2.43,0.04c1.03-0.06,2.06-0.14,3.08-0.36
			c1.07-0.23,2.09-0.54,3.06-1.06C66.91,636.17,67.63,635.59,68.18,634.81z M74.69,637.19c-0.09,0.12-0.15,0.2-0.21,0.28
			c-1.24,1.68-2.49,3.35-3.73,5.03c-0.47,0.63-0.93,1.26-1.4,1.88c-0.1,0.13-0.11,0.21,0.04,0.31c0.24,0.16,0.47,0.32,0.68,0.51
			c0.19,0.16,0.28,0.13,0.43-0.06c1.82-2.47,3.65-4.93,5.47-7.39c0.19-0.26,0.55-0.52,0.51-0.77c-0.04-0.28-0.48-0.4-0.73-0.61
			c-0.1-0.08-0.19-0.14-0.33-0.16c-0.74-0.1-1.48-0.21-2.21-0.33c-0.15-0.02-0.23,0-0.28,0.15c-0.08,0.23-0.17,0.45-0.27,0.66
			c-0.09,0.18-0.03,0.22,0.15,0.24C73.42,637,74.03,637.09,74.69,637.19z"/>
		<path class="st4" d="M68.18,634.81c-0.55,0.78-1.27,1.36-2.11,1.81c-0.97,0.52-1.99,0.83-3.06,1.06
			c-1.02,0.22-2.04,0.31-3.08,0.36c-0.81,0.04-1.62,0.01-2.43-0.04c-0.61-0.04-1.22-0.16-1.83-0.23c-0.39-0.05-0.57-0.32-0.71-0.64
			c-0.26-0.6-0.54-1.2-0.77-1.82c-0.22-0.6-0.41-1.21-0.58-1.83c-0.26-0.93-0.45-1.88-0.55-2.85c-0.1-0.97-0.14-1.93-0.01-2.91
			c0.12-0.98,0.41-1.91,0.88-2.77c0.35-0.63,0.85-1.13,1.38-1.6c0.27-0.24,0.56-0.45,0.87-0.64c0.83-0.49,1.7-0.7,2.66-0.59
			c0.99,0.11,1.89,0.47,2.65,1.09c0.81,0.66,1.33,1.51,1.48,2.57c0.05,0.36,0.13,0.73,0.17,1.09c0.02,0.14,0.05,0.16,0.17,0.13
			c0.63-0.13,1.26-0.26,1.9-0.2c1.03,0.09,1.94,0.47,2.69,1.22c0.53,0.53,0.98,1.11,1.25,1.81c0.27,0.71,0.36,1.44,0.24,2.19
			c-0.06,0.41-0.19,0.8-0.33,1.19C68.88,633.81,68.53,634.31,68.18,634.81z"/>
		<path class="st4" d="M74.69,637.19c-0.66-0.09-1.27-0.19-1.87-0.26c-0.17-0.02-0.24-0.06-0.15-0.24c0.11-0.21,0.2-0.44,0.27-0.66
			c0.05-0.15,0.13-0.17,0.28-0.15c0.74,0.12,1.47,0.22,2.21,0.33c0.13,0.02,0.23,0.08,0.33,0.16c0.25,0.21,0.68,0.34,0.73,0.61
			c0.04,0.26-0.32,0.52-0.51,0.77c-1.82,2.46-3.65,4.92-5.47,7.39c-0.15,0.2-0.24,0.22-0.43,0.06c-0.21-0.19-0.45-0.35-0.68-0.51
			c-0.15-0.1-0.14-0.18-0.04-0.31c0.47-0.62,0.93-1.25,1.4-1.88c1.24-1.68,2.49-3.35,3.73-5.03
			C74.54,637.39,74.6,637.31,74.69,637.19z"/>
	</g>
</g>
<g id="Calque_3" class="st0">
	<path class="st5" d="M113.72,626.75c-2.43,1.47-5.05,1.75-7.78,1.22c-2.54-0.49-4.97-1.38-7.45-2.1
		c-5.51-1.61-11.01-3.26-16.51-4.88c-0.46-0.13-0.58-0.29-0.44-0.77c2.25-7.57,4.48-15.15,6.73-22.72c0.72-2.42,2-4.52,4.02-6.02
		c2.45-1.83,5.21-2.83,8.36-2.42c1.94,0.25,3.68,0.93,5.25,2.07c1.76,1.28,3.07,2.94,3.85,4.97c0.88,2.32,1.09,4.7,0.43,7.13
		c-0.13,0.47-0.27,0.94-0.41,1.41c-0.26,0.88-0.24,0.91,0.62,1.17c1.23,0.37,2.46,0.7,3.58,1.38c1.08,0.65,2.04,1.43,2.86,2.36
		c1.49,1.7,2.42,3.68,2.71,5.94c0.43,3.26-0.42,6.16-2.49,8.69c-0.33,0.4-0.71,0.76-1.08,1.13
		C115.32,625.94,114.5,626.32,113.72,626.75z M111.32,622.31c0.3-0.16,0.62-0.28,0.88-0.49c2.1-1.67,2.97-4.61,1.88-7.08
		c-0.86-1.93-2.23-3.26-4.27-3.86c-1.97-0.59-3.95-1.17-5.93-1.76c-0.65-0.19-0.64-0.19-0.46-0.83c0.63-2.16,1.33-4.29,1.87-6.47
		c0.57-2.29-0.13-4.38-1.73-6.01c-1.63-1.66-3.75-2.19-6.01-1.47c-2.17,0.69-3.65,2.17-4.31,4.38c-1.79,6.02-3.56,12.05-5.36,18.07
		c-0.12,0.41-0.05,0.59,0.38,0.71c6.06,1.78,12.11,3.6,18.17,5.37C108.13,623.37,109.78,623.19,111.32,622.31z"/>
</g>
<g id="Calque_4" class="st0">
	<g class="st1">
		<path d="M79.77,580.12c0-0.19,0-0.32,0-0.45c0.03-3.06,0.05-6.13,0.08-9.19c0-0.27-0.08-0.46-0.27-0.64
			c-0.57-0.56-1.18-1.09-1.68-1.71c-0.74-0.92-1.46-1.86-2.09-2.86c-0.96-1.53-1.67-3.18-2.13-4.93c-0.2-0.76-0.35-1.53-0.46-2.3
			c-0.15-1.03-0.28-2.06-0.33-3.1c-0.11-2.38,0.33-4.67,1.14-6.9c0.64-1.75,1.56-3.34,2.67-4.83c1.03-1.39,2.29-2.57,3.6-3.68
			c1.22-1.04,2.59-1.87,4.03-2.61c1.53-0.79,3.12-1.42,4.78-1.85c1.2-0.31,2.43-0.49,3.65-0.69c1.59-0.26,3.2-0.36,4.8-0.17
			c0.87,0.1,1.74,0.28,2.59,0.48c1,0.24,1.98,0.52,2.96,0.84c0.58,0.19,1.14,0.47,1.7,0.73c1.29,0.59,2.5,1.31,3.65,2.13
			c1.35,0.96,2.59,2.04,3.67,3.3c0.61,0.71,1.22,1.43,1.75,2.21c0.69,1.02,1.31,2.09,1.8,3.23c0.49,1.14,0.86,2.31,1.16,3.51
			c0.39,1.57,0.55,3.17,0.42,4.77c-0.09,1.13-0.28,2.25-0.49,3.37c-0.16,0.84-0.38,1.68-0.68,2.48c-0.39,1.04-0.85,2.07-1.36,3.06
			c-0.39,0.75-0.86,1.46-1.38,2.12c-0.76,0.96-1.55,1.9-2.41,2.77c-0.78,0.79-1.67,1.46-2.6,2.09c-1.03,0.69-2.1,1.31-3.24,1.8
			c-1.26,0.55-2.55,1.02-3.91,1.27c-1.01,0.19-2.03,0.39-3.06,0.47c-1.15,0.1-2.3,0.11-3.45,0.09c-0.79-0.02-1.57-0.15-2.36-0.24
			c-0.01,0-0.02,0-0.03,0c-0.66-0.06-1.32-0.09-1.98-0.18c-0.49-0.06-0.91,0.09-1.32,0.33c-0.82,0.47-1.64,0.94-2.45,1.41
			c-1.49,0.86-2.98,1.73-4.47,2.58C81.34,579.26,80.59,579.66,79.77,580.12z M83.36,574.91c0.15-0.08,0.26-0.13,0.36-0.19
			c1.81-1.18,3.62-2.36,5.42-3.56c0.23-0.15,0.46-0.18,0.72-0.16c1.69,0.15,3.37,0.33,5.06,0.44c2.23,0.14,4.43-0.07,6.59-0.66
			c1.67-0.46,3.23-1.15,4.7-2.07c1.74-1.09,3.25-2.45,4.41-4.14c0.63-0.92,1.21-1.89,1.68-2.89c0.72-1.55,1.16-3.2,1.36-4.91
			c0.2-1.77,0.19-3.52-0.18-5.26c-0.6-2.74-1.86-5.17-3.68-7.28c-1.92-2.22-4.23-3.93-6.94-5.1c-1.89-0.82-3.85-1.37-5.91-1.42
			c-1.39-0.04-2.8-0.02-4.18,0.14c-1.16,0.13-2.3,0.44-3.43,0.76c-2.6,0.74-4.97,1.97-7.04,3.7c-2.22,1.86-3.91,4.13-4.94,6.86
			c-0.44,1.18-0.79,2.39-0.88,3.64c-0.09,1.29-0.02,2.59,0.06,3.88c0.12,1.79,0.66,3.48,1.41,5.1c1.19,2.58,2.96,4.72,5.12,6.55
			c0.22,0.19,0.32,0.39,0.31,0.68c-0.03,1.8-0.04,3.6-0.05,5.39C83.33,574.57,83.35,574.71,83.36,574.91z"/>
		<path d="M95.07,551.98c1.53-0.13,2.66,1.31,2.67,2.59c0.01,1.29-1.21,2.64-2.67,2.63c-1.45-0.01-2.65-1.32-2.63-2.66
			C92.46,553.2,93.74,551.81,95.07,551.98z"/>
		<path d="M105.81,552.07c1.36-0.15,2.6,1.28,2.6,2.63c0,1.22-1.18,2.62-2.7,2.59c-1.42-0.03-2.64-1.36-2.6-2.66
			C103.14,553.33,104.3,551.91,105.81,552.07z"/>
		<path d="M84.43,551.89c1.51-0.13,2.64,1.35,2.65,2.62c0.01,1.18-1.15,2.62-2.69,2.6c-1.49-0.02-2.63-1.48-2.62-2.65
			C81.77,553.34,82.96,551.7,84.43,551.89z"/>
	</g>
</g>
<g id="Calque_5" class="st0">
	<path class="st1" d="M152.5,546.03c5.5,2.12,11.01,4.24,16.51,6.36c0.73,0.28,1.13,1.11,0.8,1.68c-0.13,0.22-0.3,0.44-0.48,0.62
		c-8.2,8.5-16.41,17-24.62,25.5c-0.5,0.52-1.05,0.65-1.61,0.39c-0.56-0.26-0.8-0.78-0.71-1.53c0.82-6.58,1.64-13.16,2.48-19.73
		c0.04-0.29-0.01-0.53-0.16-0.78c-3.45-5.64-6.88-11.29-10.32-16.94c-0.29-0.48-0.39-0.96-0.09-1.46c0.28-0.46,0.71-0.67,1.25-0.61
		c0.18,0.02,0.36,0.09,0.53,0.16C141.54,541.8,147.02,543.92,152.5,546.03z M138.54,543.38c-0.03,0.02-0.06,0.04-0.09,0.06
		c0.03,0.04,0.07,0.07,0.1,0.12c2.7,4.45,5.4,8.9,8.1,13.36c0.12,0.2,0.24,0.22,0.45,0.17c5.58-1.24,11.17-2.48,16.75-3.72
		c0.09-0.02,0.17-0.06,0.31-0.11C155.57,549.95,147.05,546.67,138.54,543.38z M145.41,575.67c0.03,0.02,0.06,0.03,0.09,0.05
		c6.39-6.61,12.78-13.23,19.17-19.84c-0.14-0.04-0.22-0.03-0.31-0.01c-5.55,1.24-11.09,2.49-16.64,3.72
		c-0.31,0.07-0.35,0.23-0.38,0.49c-0.45,3.65-0.9,7.3-1.35,10.95C145.79,572.58,145.6,574.12,145.41,575.67z"/>
	<g class="st1">
		<path class="st2" d="M184.41,560.12c-2.72-19.53-5.45-39.07-8.18-58.6c-0.04-0.26,0.01-0.32,0.27-0.36
			c19-2.64,37.99-5.29,56.99-7.95c0.26-0.04,0.32,0.01,0.36,0.27c2.7,19.43,5.41,38.86,8.13,58.29c0.04,0.26-0.01,0.32-0.27,0.36
			C222.6,554.79,203.5,557.46,184.41,560.12z M206.07,503.83c-8.42,1.18-16.85,2.37-25.28,3.51c-1.74,0.23-3.1,2.15-2.84,3.79
			c0.09,0.55,0.16,1.09,0.23,1.64c1.21,8.67,2.42,17.35,3.63,26.02c0.26,1.83,1.99,3.13,3.83,2.88c4.2-0.59,8.4-1.17,12.6-1.77
			c0.35-0.05,0.61,0.03,0.89,0.24c4,3.02,8,6.04,12.01,9.06c0.44,0.33,0.5,0.32,0.83-0.11c3.04-4.02,6.07-8.04,9.11-12.06
			c0.18-0.24,0.38-0.36,0.68-0.4c4.73-0.65,9.45-1.32,14.18-1.97c1.86-0.25,3.19-1.98,2.94-3.88c-0.08-0.57-0.18-1.13-0.25-1.7
			c-0.14-1.25-0.34-2.48-0.51-3.73c-1-7.2-2.01-14.41-3.02-21.61c-0.05-0.37-0.1-0.76-0.22-1.11c-0.48-1.39-2.06-2.57-3.82-2.31
			C222.75,501.54,214.41,502.67,206.07,503.83z"/>
		<path class="st3" d="M206.07,503.83c8.33-1.16,16.67-2.29,25-3.51c1.75-0.26,3.33,0.91,3.82,2.31c0.12,0.35,0.17,0.74,0.22,1.11
			c1.01,7.2,2.01,14.41,3.02,21.61c0.17,1.24,0.37,2.48,0.51,3.73c0.07,0.57,0.17,1.13,0.25,1.7c0.26,1.9-1.08,3.63-2.94,3.88
			c-4.73,0.65-9.45,1.32-14.18,1.97c-0.3,0.04-0.5,0.17-0.68,0.4c-3.03,4.02-6.07,8.04-9.11,12.06c-0.33,0.44-0.39,0.44-0.83,0.11
			c-4-3.02-8.01-6.04-12.01-9.06c-0.27-0.21-0.54-0.29-0.89-0.24c-4.2,0.6-8.4,1.18-12.6,1.77c-1.84,0.26-3.57-1.04-3.83-2.88
			c-1.21-8.67-2.42-17.35-3.63-26.02c-0.08-0.55-0.15-1.1-0.23-1.64c-0.26-1.64,1.1-3.56,2.84-3.79
			C189.23,506.21,197.65,505.01,206.07,503.83z M215.28,517.98c-0.13-0.78-0.26-1.56-0.6-2.29c-0.22-0.48-0.46-0.96-0.77-1.39
			c-0.58-0.81-1.32-1.41-2.22-1.81c-0.89-0.4-1.83-0.52-2.8-0.53c-1.37-0.02-2.56,0.46-3.6,1.32c-0.64,0.53-1.12,1.22-1.58,1.92
			c-0.09,0.13-0.14,0.15-0.28,0.03c-0.37-0.3-0.77-0.57-1.15-0.86c-1.1-0.84-2.36-1.15-3.71-1.03c-1.27,0.12-2.43,0.61-3.45,1.4
			c-0.99,0.77-1.6,1.76-1.92,2.96c-0.12,0.46-0.19,0.92-0.22,1.38c-0.06,0.92-0.08,1.84,0.18,2.74c0.35,1.23,0.92,2.34,1.7,3.37
			c0.77,1.01,1.68,1.87,2.65,2.67c0.97,0.8,2.01,1.5,3.1,2.13c0.72,0.41,1.45,0.81,2.2,1.16c0.77,0.36,1.58,0.66,2.37,0.98
			c0.42,0.17,0.83,0.25,1.24-0.06c0.63-0.48,1.3-0.92,1.9-1.44c0.79-0.69,1.57-1.39,2.28-2.17c0.9-0.99,1.78-2,2.51-3.13
			c0.77-1.19,1.44-2.4,1.86-3.76C215.34,520.39,215.48,519.2,215.28,517.98z M223.46,514.27c0.03,0.2,0.04,0.32,0.06,0.44
			c0.37,2.68,0.75,5.36,1.12,8.04c0.14,1,0.29,2.01,0.42,3.01c0.03,0.22,0.09,0.3,0.32,0.25c0.36-0.07,0.73-0.13,1.09-0.15
			c0.32-0.02,0.38-0.13,0.34-0.45c-0.56-3.93-1.1-7.87-1.66-11.81c-0.06-0.41,0.04-0.98-0.23-1.18c-0.29-0.22-0.81,0.06-1.23,0.09
			c-0.16,0.01-0.31,0.04-0.45,0.15c-0.78,0.58-1.55,1.15-2.34,1.71c-0.16,0.11-0.21,0.21-0.12,0.39c0.13,0.28,0.26,0.57,0.35,0.86
			c0.08,0.25,0.17,0.23,0.35,0.09C222.12,515.24,222.76,514.78,223.46,514.27z"/>
		<path class="st4" d="M215.28,517.98c0.19,1.22,0.06,2.41-0.31,3.59c-0.42,1.36-1.09,2.57-1.86,3.76
			c-0.74,1.13-1.61,2.14-2.51,3.13c-0.71,0.78-1.49,1.48-2.28,2.17c-0.6,0.52-1.27,0.96-1.9,1.44c-0.4,0.31-0.82,0.23-1.24,0.06
			c-0.79-0.32-1.59-0.62-2.37-0.98c-0.75-0.35-1.48-0.74-2.2-1.16c-1.09-0.63-2.13-1.33-3.1-2.13c-0.97-0.81-1.88-1.66-2.65-2.67
			c-0.78-1.02-1.35-2.13-1.7-3.37c-0.25-0.9-0.24-1.82-0.18-2.74c0.03-0.47,0.1-0.92,0.22-1.38c0.32-1.2,0.94-2.19,1.92-2.96
			c1.02-0.8,2.17-1.28,3.45-1.4c1.35-0.13,2.61,0.19,3.71,1.03c0.38,0.29,0.78,0.55,1.15,0.86c0.14,0.11,0.19,0.1,0.28-0.03
			c0.46-0.69,0.93-1.38,1.58-1.92c1.04-0.86,2.22-1.34,3.6-1.32c0.97,0.01,1.92,0.13,2.8,0.53c0.89,0.4,1.64,1,2.22,1.81
			c0.32,0.44,0.55,0.91,0.77,1.39C215.02,516.42,215.15,517.2,215.28,517.98z"/>
		<path class="st4" d="M223.46,514.27c-0.7,0.51-1.34,0.98-1.97,1.46c-0.18,0.14-0.27,0.16-0.35-0.09
			c-0.09-0.29-0.22-0.58-0.35-0.86c-0.09-0.19-0.04-0.28,0.12-0.39c0.79-0.56,1.57-1.13,2.34-1.71c0.14-0.1,0.29-0.13,0.45-0.15
			c0.42-0.04,0.94-0.31,1.23-0.09c0.27,0.2,0.17,0.77,0.23,1.18c0.55,3.94,1.1,7.87,1.66,11.81c0.04,0.31-0.02,0.43-0.34,0.45
			c-0.37,0.02-0.73,0.08-1.09,0.15c-0.23,0.05-0.29-0.04-0.32-0.25c-0.13-1.01-0.28-2.01-0.42-3.01c-0.37-2.68-0.75-5.36-1.12-8.04
			C223.51,514.58,223.49,514.46,223.46,514.27z"/>
	</g>
	<path class="st5" d="M207.16,454.35c-0.79,3.96-3.02,6.98-6.2,9.34c-2.96,2.19-6.23,3.9-9.37,5.8c-6.99,4.24-14,8.43-21,12.66
		c-0.58,0.35-0.86,0.33-1.23-0.28c-5.79-9.64-11.61-19.27-17.4-28.91c-1.85-3.08-2.82-6.45-2.46-10.01
		c0.44-4.33,2.04-8.19,5.5-11.11c2.12-1.79,4.52-2.97,7.22-3.52c3.03-0.62,6.04-0.4,8.92,0.74c3.28,1.3,5.99,3.38,7.9,6.4
		c0.37,0.59,0.72,1.19,1.08,1.79c0.68,1.12,0.73,1.13,1.82,0.47c1.56-0.94,3.1-1.91,4.88-2.43c1.72-0.51,3.46-0.77,5.23-0.73
		c3.22,0.06,6.18,0.99,8.84,2.85c3.84,2.69,6.06,6.36,6.73,10.98c0.11,0.73,0.11,1.48,0.15,2.22
		C207.85,451.9,207.46,453.12,207.16,454.35z M200.18,452.61c0.12-0.47,0.3-0.93,0.34-1.4c0.27-3.81-1.99-7.56-5.62-8.78
		c-2.85-0.95-5.57-0.78-8.17,0.77c-2.52,1.51-5.03,3.02-7.54,4.53c-0.82,0.49-0.82,0.49-1.31-0.32c-1.66-2.74-3.23-5.53-5-8.19
		c-1.86-2.8-4.72-4.07-7.97-3.96c-3.31,0.12-5.9,1.83-7.32,4.91c-1.36,2.95-1.22,5.92,0.47,8.74c4.6,7.67,9.23,15.33,13.84,23
		c0.31,0.52,0.57,0.61,1.11,0.29c7.7-4.65,15.42-9.27,23.11-13.93C198.24,456.98,199.63,455.07,200.18,452.61z"/>
	<g class="st1">
		<path d="M281.67,398.92c0.1,0.24,0.17,0.4,0.24,0.55c1.63,3.75,3.27,7.49,4.89,11.24c0.14,0.33,0.34,0.51,0.67,0.64
			c1,0.37,2.03,0.69,2.97,1.17c1.4,0.71,2.79,1.48,4.09,2.35c1.99,1.34,3.76,2.97,5.27,4.85c0.65,0.81,1.26,1.67,1.81,2.56
			c0.73,1.17,1.46,2.36,2.08,3.6c1.43,2.83,2.13,5.86,2.35,9.02c0.17,2.48-0.09,4.92-0.63,7.33c-0.51,2.25-1.4,4.37-2.39,6.44
			c-0.92,1.93-2.15,3.69-3.49,5.36c-1.44,1.79-3.03,3.42-4.82,4.84c-1.29,1.02-2.69,1.92-4.07,2.82c-1.8,1.17-3.7,2.17-5.76,2.81
			c-1.12,0.34-2.27,0.61-3.42,0.82c-1.34,0.25-2.7,0.44-4.06,0.58c-0.81,0.09-1.64,0.05-2.47,0.04c-1.89-0.02-3.76-0.23-5.6-0.61
			c-2.16-0.44-4.27-1.08-6.26-2.03c-1.13-0.53-2.26-1.08-3.32-1.74c-1.4-0.87-2.73-1.84-3.95-2.95c-1.22-1.12-2.3-2.35-3.32-3.65
			c-1.33-1.71-2.38-3.56-3.1-5.59c-0.5-1.43-0.89-2.9-1.23-4.37c-0.26-1.11-0.45-2.26-0.52-3.39c-0.09-1.49-0.09-2.98,0-4.47
			c0.07-1.12,0.25-2.25,0.53-3.33c0.4-1.58,0.86-3.15,1.43-4.68c0.52-1.39,1.24-2.69,2.04-3.95c0.89-1.4,1.86-2.73,2.97-3.96
			c1.24-1.35,2.56-2.62,4.07-3.66c1.13-0.78,2.27-1.57,3.47-2.23c1.34-0.74,2.74-1.38,4.16-1.98c0.97-0.41,2-0.67,3.01-0.99
			c0.01,0,0.03-0.01,0.04-0.01c0.83-0.29,1.66-0.6,2.5-0.86c0.64-0.19,1.06-0.6,1.43-1.12c0.74-1.02,1.49-2.03,2.22-3.04
			c1.35-1.86,2.69-3.72,4.05-5.57C280.22,400.82,280.91,399.92,281.67,398.92z M280.11,407.21c-0.14,0.18-0.25,0.3-0.33,0.42
			c-1.56,2.42-3.13,4.84-4.68,7.27c-0.2,0.31-0.46,0.47-0.79,0.58c-2.14,0.73-4.29,1.42-6.41,2.21c-2.79,1.04-5.36,2.49-7.67,4.38
			c-1.78,1.46-3.32,3.15-4.6,5.06c-1.52,2.27-2.63,4.74-3.13,7.43c-0.27,1.46-0.46,2.96-0.48,4.44c-0.04,2.28,0.32,4.52,1.01,6.72
			c0.71,2.26,1.68,4.39,3.08,6.3c2.21,3.02,5.06,5.29,8.43,6.88c3.54,1.67,7.29,2.49,11.21,2.45c2.75-0.03,5.43-0.42,7.97-1.47
			c1.72-0.71,3.42-1.5,5.02-2.44c1.34-0.79,2.57-1.79,3.77-2.79c2.77-2.31,4.98-5.1,6.57-8.33c1.7-3.47,2.53-7.15,2.29-11.04
			c-0.1-1.68-0.33-3.35-0.9-4.91c-0.58-1.62-1.38-3.17-2.18-4.7c-1.12-2.11-2.69-3.89-4.48-5.45c-2.85-2.49-6.17-4.15-9.79-5.21
			c-0.37-0.11-0.6-0.3-0.75-0.66c-0.94-2.21-1.91-4.4-2.87-6.6C280.33,407.61,280.23,407.45,280.11,407.21z"/>
		<path d="M278.27,441.51c-1.79,0.99-3.95-0.16-4.66-1.71c-0.72-1.56,0.04-3.87,1.83-4.65c1.77-0.77,3.94,0.17,4.65,1.81
			C280.8,438.61,279.99,440.99,278.27,441.51z"/>
		<path d="M265.14,447.22c-1.58,0.92-3.87-0.15-4.59-1.79c-0.66-1.48,0.02-3.83,1.89-4.62c1.75-0.74,3.95,0.23,4.61,1.83
			C267.72,444.24,267.06,446.59,265.14,447.22z"/>
		<path d="M291.29,435.84c-1.77,0.98-3.95-0.21-4.65-1.75c-0.65-1.43-0.02-3.82,1.87-4.63c1.82-0.78,4.01,0.38,4.63,1.81
			C293.75,432.63,293.18,435.28,291.29,435.84z"/>
	</g>
	<path class="st1" d="M132.77,386.3c1.9-9.37,3.8-18.75,5.7-28.12c0.25-1.25,1.46-2.11,2.47-1.73c0.39,0.15,0.78,0.35,1.13,0.59
		c15.82,10.81,31.63,21.63,47.44,32.45c0.97,0.66,1.33,1.51,1.06,2.47c-0.26,0.96-1.04,1.49-2.26,1.55
		c-10.74,0.47-21.48,0.93-32.22,1.39c-0.48,0.02-0.84,0.16-1.2,0.48c-8.09,7.04-16.19,14.06-24.28,21.09
		c-0.69,0.6-1.44,0.88-2.31,0.54c-0.81-0.32-1.26-0.95-1.31-1.83c-0.02-0.29,0.05-0.6,0.11-0.89
		C128.99,404.96,130.88,395.63,132.77,386.3z M132.33,409.33c0.04,0.04,0.08,0.08,0.12,0.12c0.05-0.06,0.1-0.14,0.16-0.19
		c6.38-5.53,12.77-11.05,19.16-16.57c0.29-0.25,0.29-0.44,0.16-0.76c-3.5-8.59-7-17.19-10.49-25.78c-0.06-0.14-0.14-0.26-0.26-0.47
		C138.21,380.31,135.27,394.82,132.33,409.33z M182.08,389.6c0.02-0.05,0.04-0.1,0.05-0.15c-12.31-8.42-24.61-16.85-36.92-25.27
		c-0.03,0.23,0.02,0.37,0.07,0.5c3.49,8.53,6.99,17.06,10.46,25.59c0.2,0.48,0.47,0.5,0.88,0.48c5.96-0.27,11.92-0.54,17.88-0.81
		C177.04,389.83,179.56,389.72,182.08,389.6z"/>
	<path class="st1" d="M155.43,483.48c0.43,0.71,0.96,1.37,1.26,2.13c0.71,1.83,0.29,3.55-0.79,5.12c-1.17,1.72-2.84,2.86-4.55,3.98
		c-1.19,0.78-2.33,1.63-3.47,2.47c-0.24,0.18-0.43,0.43-0.68,0.69c0.81,0.46,1.57,0.88,2.31,1.33c2.17,1.34,4.23,2.81,5.78,4.88
		c0.88,1.18,1.47,2.48,1.35,3.99c-0.13,1.69-1,2.93-2.42,3.8c-0.25,0.16-0.37,0.32-0.4,0.62c-0.24,2.25-1.63,3.89-3.83,4.48
		c-0.41,0.11-0.62,0.31-0.8,0.69c-0.9,1.88-2.41,2.98-4.48,3.25c-0.55,0.07-0.91,0.25-1.28,0.69c-1.43,1.72-3.32,2.24-5.48,1.85
		c-1.91-0.34-3.61-1.21-5.12-2.39c-3.08-2.41-5.94-5.07-8.75-7.78c-1.74-1.69-3.37-3.48-5.07-5.22c-0.15-0.15-0.36-0.29-0.56-0.33
		c-0.71-0.14-1.33-0.45-1.88-0.91c-1.34-1.14-2.69-2.28-4.02-3.44c-1.42-1.24-1.8-2.95-1.01-4.62c0.17-0.35,0.4-0.68,0.66-0.98
		c3.07-3.61,6.16-7.21,9.24-10.8c1.58-1.84,3.83-2.01,5.68-0.43c1.15,0.98,2.29,1.97,3.44,2.94c0.66,0.56,1.31,1.12,1.63,1.99
		c1.07-0.46,2.14-0.83,3.27-0.86c1.2-0.02,2.38-0.18,3.49-0.59c2.15-0.79,4.29-1.62,6.4-2.51c1.31-0.55,2.56-1.24,3.81-1.91
		c0.35-0.19,0.63-0.53,0.93-0.82c0.62-0.59,1.18-1.26,1.85-1.77c0.81-0.61,1.75-0.64,2.68-0.21
		C154.91,483.04,155.17,483.26,155.43,483.48z M121.47,507.09c0.03,0.04,0.07,0.09,0.12,0.14c1.67,1.7,3.27,3.47,5.02,5.08
		c2.57,2.37,5.21,4.66,7.88,6.91c1.07,0.9,2.35,1.5,3.74,1.8c1.65,0.36,2.94-0.12,3.72-1.52c0.42-0.75,0.96-0.99,1.78-0.97
		c1.72,0.05,3.03-0.87,3.48-2.46c0.23-0.82,0.7-1.21,1.53-1.32c1.81-0.26,2.74-1.32,2.7-3.13c-0.02-0.85,0.32-1.32,1.1-1.63
		c1.63-0.65,2.19-2.18,1.28-3.69c-0.49-0.82-1.15-1.57-1.83-2.25c-1.82-1.79-4.02-3.02-6.25-4.22c-1.13-0.61-1.52-1.83-0.8-2.9
		c0.49-0.72,1.07-1.45,1.75-1.97c1.37-1.06,2.84-1.98,4.27-2.95c1.09-0.74,2.11-1.55,2.89-2.63c0.99-1.37,0.98-2.75-0.04-4.04
		c-0.31-0.4-0.45-0.43-0.8-0.07c-0.39,0.4-0.74,0.85-1.12,1.26c-0.26,0.29-0.49,0.65-0.82,0.83c-3.07,1.71-6.23,3.22-9.54,4.41
		c-1.75,0.63-3.54,1.18-5.42,1.24c-0.94,0.03-1.83,0.21-2.66,0.61c-0.5,0.23-0.97,0.55-1.38,0.92c-0.31,0.27-0.47,0.7-0.74,1.02
		c-3.03,3.55-6.07,7.1-9.1,10.64C121.98,506.49,121.74,506.78,121.47,507.09z M118.73,493.95c-1.58,1.84-3.16,3.68-4.73,5.53
		c-0.59,0.69-0.52,1.45,0.17,2.04c1.3,1.12,2.61,2.24,3.92,3.35c0.8,0.68,1.52,0.63,2.2-0.17c3.09-3.61,6.18-7.22,9.27-10.83
		c0.69-0.8,0.64-1.51-0.16-2.2c-1.28-1.1-2.57-2.2-3.86-3.3c-0.81-0.69-1.51-0.63-2.19,0.17
		C121.81,490.35,120.27,492.15,118.73,493.95z"/>
	<path class="st5" d="M271.58,327.55c2.21,5.5,1.89,11-0.13,16.46c-1.88,5.07-4.54,9.78-6.87,14.64
		c-5.19,10.81-10.46,21.58-15.67,32.39c-0.43,0.89-0.79,1.1-1.74,0.64c-14.85-7.22-29.71-14.39-44.57-21.59
		c-4.74-2.3-8.64-5.66-11.05-10.33c-2.93-5.68-4.06-11.7-2.15-18.06c1.17-3.91,3.18-7.27,6.05-10.11c3.23-3.19,7.1-5.34,11.55-6.24
		c5.08-1.03,10.07-0.64,14.84,1.54c0.93,0.43,1.85,0.89,2.77,1.33c1.73,0.83,1.8,0.81,2.62-0.88c1.17-2.41,2.28-4.83,4.05-6.9
		c1.7-2,3.64-3.72,5.85-5.09c4.01-2.5,8.4-3.74,13.16-3.58c6.87,0.22,12.55,2.96,17.08,8.09c0.72,0.81,1.32,1.73,1.96,2.61
		C270.45,323.98,270.95,325.79,271.58,327.55z M261.6,331c-0.23-0.67-0.37-1.38-0.71-1.99c-2.72-4.89-8.5-7.7-13.95-6.28
		c-4.27,1.11-7.47,3.5-9.42,7.5c-1.88,3.87-3.76,7.75-5.64,11.62c-0.61,1.27-0.62,1.26-1.87,0.66c-4.23-2.03-8.4-4.21-12.71-6.06
		c-4.53-1.95-9.07-1.22-12.97,1.52c-3.98,2.8-5.79,6.99-5.07,11.9c0.69,4.72,3.25,8.26,7.58,10.37
		c11.8,5.74,23.63,11.44,35.44,17.18c0.8,0.39,1.19,0.29,1.6-0.54c5.73-11.89,11.53-23.75,17.24-35.65
		C262.71,337.93,262.9,334.47,261.6,331z"/>
	<g class="st1">
		<path class="st3" d="M355.19,304.01c10.97,8.28,21.92,16.59,32.95,24.79c2.33,1.73,2.8,4.9,1.75,7.07
			c-0.27,0.55-0.66,1.04-1.03,1.54c-7.15,9.49-14.3,18.97-21.46,28.46c-1.23,1.64-2.44,3.29-3.71,4.9
			c-0.58,0.74-1.11,1.51-1.68,2.25c-1.9,2.49-5.44,2.95-7.88,1.1c-6.21-4.71-12.45-9.39-18.66-14.09c-0.4-0.3-0.77-0.38-1.25-0.32
			c-8.15,1.15-16.3,2.29-24.44,3.43c-0.88,0.12-0.96,0.07-1.09-0.82c-1.14-8.11-2.29-16.22-3.42-24.33
			c-0.08-0.56-0.29-0.95-0.75-1.3c-5.54-4.16-11.07-8.33-16.6-12.5c-2.42-1.83-2.93-5.33-1.11-7.75
			c8.61-11.42,17.23-22.84,25.84-34.27c0.54-0.72,1.1-1.43,1.63-2.17c1.59-2.2,5.37-2.85,7.65-1.11
			C332.98,287.31,344.09,295.65,355.19,304.01z M349.5,330.99c0.75-1.05,1.5-2.11,1.95-3.34c0.3-0.81,0.57-1.63,0.71-2.5
			c0.26-1.6,0.09-3.15-0.47-4.65c-0.56-1.48-1.52-2.71-2.62-3.85c-1.57-1.61-3.49-2.42-5.68-2.63c-1.36-0.13-2.7,0.12-4.03,0.39
			c-0.26,0.05-0.33,0-0.36-0.29c-0.08-0.78-0.24-1.54-0.34-2.32c-0.3-2.24-1.39-4.06-3.1-5.46c-1.61-1.33-3.51-2.1-5.6-2.36
			c-2.03-0.25-3.88,0.19-5.64,1.2c-0.67,0.39-1.28,0.84-1.86,1.34c-1.13,0.99-2.21,2.04-2.96,3.37c-1.02,1.83-1.64,3.77-1.92,5.86
			c-0.27,2.06-0.21,4.1-0.02,6.15c0.19,2.05,0.59,4.06,1.12,6.04c0.35,1.31,0.74,2.61,1.2,3.87c0.48,1.31,1.06,2.58,1.61,3.87
			c0.29,0.68,0.67,1.25,1.49,1.36c1.29,0.17,2.57,0.43,3.86,0.52c1.71,0.12,3.42,0.2,5.13,0.12c2.19-0.1,4.36-0.26,6.52-0.72
			c2.26-0.48,4.44-1.12,6.49-2.2C346.79,333.84,348.32,332.63,349.5,330.99z M363.24,336.14c-0.19,0.26-0.32,0.42-0.44,0.58
			c-2.66,3.53-5.32,7.06-7.99,10.59c-1,1.32-1.99,2.65-3,3.96c-0.22,0.28-0.24,0.45,0.08,0.66c0.5,0.34,0.99,0.69,1.44,1.09
			c0.39,0.35,0.6,0.29,0.91-0.13c3.89-5.19,7.81-10.37,11.71-15.56c0.4-0.54,1.17-1.08,1.09-1.63c-0.08-0.58-1-0.87-1.53-1.31
			c-0.2-0.17-0.41-0.31-0.69-0.35c-1.56-0.23-3.12-0.47-4.68-0.73c-0.32-0.05-0.48,0-0.59,0.32c-0.17,0.48-0.36,0.95-0.59,1.4
			c-0.2,0.39-0.06,0.46,0.3,0.51C360.57,335.72,361.84,335.93,363.24,336.14z"/>
		<path class="st4" d="M349.5,330.99c-1.19,1.64-2.72,2.85-4.5,3.79c-2.05,1.08-4.23,1.72-6.49,2.2c-2.16,0.46-4.33,0.61-6.52,0.72
			c-1.72,0.08-3.43,0-5.13-0.12c-1.29-0.09-2.57-0.35-3.86-0.52c-0.82-0.11-1.21-0.68-1.49-1.36c-0.55-1.28-1.13-2.56-1.61-3.87
			c-0.46-1.27-0.85-2.57-1.2-3.87c-0.53-1.98-0.93-3.99-1.12-6.04c-0.19-2.05-0.25-4.1,0.02-6.15c0.28-2.08,0.9-4.03,1.92-5.86
			c0.74-1.33,1.83-2.37,2.96-3.37c0.57-0.5,1.18-0.95,1.86-1.34c1.76-1.02,3.61-1.45,5.64-1.2c2.1,0.26,3.99,1.02,5.6,2.36
			c1.71,1.41,2.79,3.23,3.1,5.46c0.11,0.77,0.26,1.54,0.34,2.32c0.03,0.29,0.11,0.34,0.36,0.29c1.33-0.27,2.68-0.52,4.03-0.39
			c2.19,0.21,4.11,1.02,5.68,2.63c1.1,1.14,2.06,2.36,2.62,3.85c0.57,1.5,0.73,3.05,0.47,4.65c-0.14,0.87-0.41,1.69-0.71,2.5
			C351,328.88,350.25,329.94,349.5,330.99z"/>
		<path class="st4" d="M363.24,336.14c-1.4-0.21-2.68-0.42-3.96-0.59c-0.37-0.05-0.5-0.12-0.3-0.51c0.23-0.45,0.42-0.92,0.59-1.4
			c0.11-0.32,0.27-0.37,0.59-0.32c1.56,0.26,3.12,0.5,4.68,0.73c0.28,0.04,0.49,0.18,0.69,0.35c0.53,0.44,1.44,0.72,1.53,1.31
			c0.08,0.55-0.69,1.09-1.09,1.63c-3.9,5.19-7.82,10.37-11.71,15.56c-0.31,0.41-0.52,0.47-0.91,0.13c-0.45-0.4-0.94-0.75-1.44-1.09
			c-0.32-0.22-0.29-0.38-0.08-0.66c1.01-1.31,2-2.64,3-3.96c2.66-3.53,5.32-7.06,7.99-10.59
			C362.93,336.56,363.05,336.4,363.24,336.14z"/>
	</g>
	<path class="st1" d="M144.04,235.79c1.19-0.59,2.33-1.36,3.59-1.74c3.04-0.9,5.75,0,8.14,1.95c2.61,2.11,4.23,4.96,5.8,7.85
		c1.1,2.01,2.32,3.96,3.51,5.92c0.25,0.42,0.64,0.75,1.02,1.18c0.85-1.24,1.62-2.41,2.45-3.54c2.45-3.31,5.09-6.44,8.63-8.65
		c2.01-1.26,4.18-2.04,6.61-1.65c2.7,0.43,4.58,2.01,5.79,4.4c0.22,0.43,0.46,0.64,0.94,0.73c3.59,0.69,6.04,3.15,6.71,6.76
		c0.12,0.67,0.41,1.03,1,1.37c2.91,1.7,4.48,4.28,4.64,7.64c0.04,0.9,0.28,1.49,0.95,2.15c2.58,2.53,3.16,5.64,2.25,9.06
		c-0.81,3.04-2.43,5.65-4.53,7.92c-4.29,4.63-8.95,8.89-13.69,13.04c-2.95,2.57-6.05,4.97-9.07,7.46c-0.26,0.22-0.51,0.54-0.6,0.86
		c-0.32,1.13-0.9,2.09-1.72,2.9c-2.01,2.01-4.03,4.02-6.07,6.01c-2.18,2.12-4.99,2.5-7.57,1.01c-0.54-0.31-1.04-0.74-1.49-1.19
		c-5.4-5.43-10.78-10.87-16.16-16.31c-2.76-2.79-2.73-6.43,0.06-9.2c1.73-1.72,3.47-3.42,5.19-5.15c0.98-0.99,1.97-1.96,3.41-2.35
		c-0.59-1.78-1.06-3.55-0.94-5.38c0.12-1.93,0.02-3.85-0.49-5.69c-0.98-3.57-2.03-7.13-3.19-10.64c-0.72-2.18-1.65-4.29-2.56-6.39
		c-0.26-0.59-0.78-1.08-1.2-1.6c-0.87-1.07-1.86-2.06-2.6-3.22c-0.88-1.38-0.79-2.9,0.03-4.34
		C143.26,236.56,143.65,236.17,144.04,235.79z M177.52,293.59c0.06-0.04,0.15-0.11,0.24-0.18c2.96-2.46,6.02-4.8,8.85-7.4
		c4.16-3.82,8.2-7.76,12.18-11.76c1.59-1.6,2.73-3.58,3.4-5.78c0.8-2.61,0.2-4.76-1.95-6.19c-1.16-0.77-1.47-1.68-1.32-3
		c0.31-2.77-0.99-4.99-3.49-5.92c-1.29-0.48-1.85-1.28-1.93-2.63c-0.17-2.95-1.76-4.58-4.68-4.76c-1.38-0.08-2.08-0.69-2.47-1.98
		c-0.83-2.71-3.22-3.82-5.77-2.56c-1.39,0.69-2.68,1.64-3.86,2.65c-3.12,2.69-5.4,6.08-7.62,9.5c-1.13,1.74-3.15,2.2-4.77,0.9
		c-1.1-0.89-2.18-1.91-2.95-3.08c-1.52-2.34-2.81-4.83-4.19-7.26c-1.04-1.85-2.22-3.6-3.85-5c-2.08-1.78-4.29-1.95-6.51-0.47
		c-0.68,0.45-0.75,0.67-0.22,1.28c0.59,0.68,1.26,1.3,1.88,1.96c0.43,0.46,0.98,0.88,1.23,1.43c2.34,5.17,4.36,10.45,5.83,15.94
		c0.78,2.91,1.43,5.85,1.28,8.89c-0.08,1.51,0.1,2.97,0.62,4.36c0.31,0.83,0.76,1.64,1.29,2.35c0.4,0.53,1.06,0.85,1.54,1.33
		c5.31,5.35,10.62,10.71,15.92,16.07C176.63,292.69,177.06,293.12,177.52,293.59z M156.01,296.26c2.76,2.78,5.51,5.57,8.27,8.35
		c1.03,1.04,2.27,1.03,3.31,0c1.98-1.95,3.95-3.91,5.92-5.86c1.2-1.19,1.22-2.36,0.03-3.56c-5.39-5.46-10.79-10.91-16.2-16.36
		c-1.2-1.21-2.35-1.22-3.56-0.03c-1.95,1.92-3.89,3.84-5.82,5.77c-1.21,1.21-1.22,2.34-0.02,3.55
		C150.62,290.82,153.32,293.54,156.01,296.26z"/>
	<g class="st1">
		<path d="M222.59,263.07c0.17-0.27,0.29-0.45,0.4-0.64c2.71-4.29,5.42-8.59,8.15-12.87c0.24-0.37,0.29-0.71,0.18-1.14
			c-0.32-1.28-0.7-2.57-0.87-3.88c-0.24-1.94-0.43-3.9-0.44-5.85c-0.01-2.99,0.43-5.94,1.31-8.8c0.38-1.24,0.84-2.46,1.36-3.65
			c0.69-1.57,1.41-3.15,2.25-4.65c1.92-3.44,4.54-6.29,7.64-8.71c2.43-1.9,5.12-3.35,7.97-4.47c2.66-1.05,5.47-1.61,8.29-2.04
			c2.63-0.4,5.29-0.37,7.95-0.15c2.84,0.23,5.64,0.73,8.35,1.58c1.95,0.61,3.85,1.43,5.74,2.22c2.46,1.03,4.82,2.29,6.91,3.96
			c1.14,0.91,2.21,1.91,3.23,2.94c1.19,1.21,2.33,2.47,3.43,3.76c0.66,0.78,1.19,1.66,1.76,2.51c1.3,1.95,2.38,4.03,3.28,6.19
			c1.05,2.53,1.86,5.14,2.29,7.86c0.24,1.53,0.47,3.08,0.53,4.63c0.09,2.04,0.02,4.09-0.28,6.12c-0.3,2.03-0.81,4.01-1.44,5.96
			c-0.83,2.56-2,4.94-3.59,7.09c-1.12,1.51-2.36,2.93-3.64,4.31c-0.96,1.04-2.01,2.04-3.13,2.9c-1.47,1.13-3.01,2.18-4.59,3.12
			c-1.2,0.71-2.48,1.31-3.79,1.78c-1.9,0.69-3.84,1.32-5.81,1.79c-1.79,0.43-3.63,0.6-5.48,0.66c-2.06,0.07-4.11,0-6.14-0.29
			c-2.25-0.33-4.48-0.8-6.61-1.63c-1.59-0.62-3.2-1.23-4.72-2c-1.7-0.86-3.34-1.85-4.94-2.89c-1.1-0.71-2.08-1.59-3.12-2.4
			c-0.01-0.01-0.03-0.02-0.04-0.04c-0.88-0.66-1.78-1.29-2.63-1.98c-0.64-0.52-1.36-0.66-2.14-0.69c-1.56-0.05-3.12-0.11-4.68-0.16
			c-2.85-0.09-5.7-0.17-8.55-0.27C225.56,263.23,224.14,263.15,222.59,263.07z M232.2,258.88c0.29,0.02,0.48,0.05,0.67,0.04
			c3.58-0.08,7.16-0.16,10.74-0.26c0.46-0.01,0.8,0.15,1.15,0.41c2.24,1.69,4.46,3.42,6.75,5.04c3.01,2.14,6.3,3.77,9.85,4.83
			c2.74,0.81,5.56,1.21,8.42,1.19c3.4-0.02,6.71-0.61,9.82-1.97c1.69-0.74,3.36-1.59,4.9-2.6c2.37-1.55,4.42-3.49,6.2-5.73
			c1.83-2.31,3.35-4.79,4.33-7.56c1.56-4.38,1.9-8.89,1.19-13.47c-0.75-4.81-2.52-9.23-5.31-13.24c-1.95-2.8-4.22-5.29-7.08-7.17
			c-1.93-1.27-3.93-2.47-6.01-3.46c-1.74-0.83-3.63-1.39-5.49-1.93c-4.31-1.24-8.72-1.56-13.15-0.94
			c-4.75,0.67-9.11,2.39-12.95,5.34c-1.65,1.27-3.21,2.68-4.42,4.35c-1.26,1.73-2.3,3.63-3.3,5.52c-1.39,2.62-2.12,5.48-2.48,8.41
			c-0.57,4.67,0.03,9.24,1.48,13.7c0.15,0.46,0.11,0.82-0.16,1.24c-1.61,2.51-3.19,5.03-4.78,7.55
			C232.46,258.38,232.36,258.59,232.2,258.88z"/>
		<path d="M268.74,236.83c2.26,1.15,2.6,4.17,1.5,5.99c-1.1,1.82-4.01,2.66-6.05,1.36c-2.03-1.28-2.57-4.17-1.38-6.05
			C263.99,236.26,267.01,235.43,268.74,236.83z"/>
		<path d="M283.78,246.34c2.05,0.98,2.55,4.08,1.36,5.97c-1.07,1.71-3.95,2.66-6.07,1.28c-1.98-1.28-2.52-4.22-1.34-6.02
			C278.91,245.78,281.79,244.81,283.78,246.34z"/>
		<path d="M253.83,227.41c2.24,1.14,2.54,4.21,1.45,6c-1.02,1.66-3.91,2.69-6.07,1.31c-2.08-1.32-2.4-4.39-1.38-6.02
			C248.81,227.12,251.93,225.86,253.83,227.41z"/>
	</g>
</g>
<g id="Calque_6">
	<path d="M314.84,167.18c5.85,1.9,12.11,3.03,17.48,5.86c12.96,6.84,18.97,18.59,20.61,32.76c1.78,15.4-2.06,30.04-6.19,44.68
		c-2.88,10.2-5.15,20.57-7.53,30.9c-0.51,2.19-0.31,4.55-0.45,7.2c6.82-1.32,13.16-2.74,19.56-3.76c18.78-3.01,37.62-4.81,56.47-0.7
		c10.73,2.34,20.4,6.8,27.16,15.91c7.53,10.16,8.64,21.42,4.9,33.26c-0.67,2.11-0.53,3.6,0.76,5.45
		c9.65,13.88,9.79,29.94,0.32,44.01c-1.75,2.6-1.97,4.74-1.14,7.78c4.1,15.01,0.97,28.61-9.37,40.23c-2.77,3.11-3.9,5.84-3.81,10.14
		c0.33,16.69-7.8,28.85-21.87,37.21c-12.48,7.42-26.3,10.82-40.59,11.53c-29.14,1.43-58.29,0.46-87.39-1.18
		c-18.05-1.02-36.05-3.15-54.07-4.68c-1.56-0.13-3.42,0.13-4.75,0.89c-4.71,2.68-9.73,3.98-15.07,4.03
		c-13.16,0.14-26.32,0.27-39.48,0.23c-14.08-0.05-24.55-7.86-28.29-21.12c-0.79-2.79-1.06-5.81-1.08-8.72
		c-0.28-35.37-0.48-70.75-0.66-106.12c-0.09-18.12,11.77-30.06,29.93-30.21c11.26-0.09,22.53-0.08,33.79-0.23
		c6.44-0.08,12.83-0.09,18.89,3.25c3.79-7.8,7.98-15.15,14.29-20.83c6.65-5.99,12.5-12.65,16.79-20.38
		c8.29-14.98,16.31-30.12,23.86-45.49c4.67-9.51,8.42-19.49,12.21-29.39c1.07-2.8,0.93-6.08,1.22-9.15
		c0.6-6.35,0.51-12.84,1.82-19.04c1.57-7.42,6.75-12.13,14.11-14.25C309.78,167.21,312.31,167.2,314.84,167.18z M238.61,466.34
		c0.34,0.05,0.84,0.14,1.34,0.18c17.72,1.45,35.42,3.6,53.17,4.17c26.07,0.82,52.18,0.87,78.26,0.5c10.4-0.15,20.57-3,29.9-8.09
		c11.09-6.04,16.03-15.07,13.57-26.77c-1.32-6.29,0.57-10.31,5.32-14.18c9.97-8.13,12.85-19.68,7.6-30.84
		c-2.72-5.78-1.97-10.21,2.15-14.93c8.97-10.3,8.99-20.82-0.08-30.84c-4.27-4.72-4.61-9.01-1.76-14.53
		c6.02-11.66,1.7-23.03-10.79-27.1c-6.8-2.22-14.15-3.26-21.32-3.72c-18.99-1.22-37.49,2.61-55.89,6.74
		c-9.34,2.1-17.53-2.93-18.65-12.46c-0.76-6.49-1.05-13.36,0.24-19.7c2.56-12.64,6.31-25.04,9.65-37.52
		c2.54-9.5,4.32-19.06,3.45-28.97c-1.1-12.59-7.88-20.31-19.98-22.58c-3.7-0.7-4.65-0.19-4.87,3.51c-0.25,4.18-0.03,8.38-0.12,12.58
		c-0.06,2.91,0.39,6.07-0.56,8.69c-8.96,24.63-19.39,48.63-32.27,71.49c-6.83,12.12-14.18,23.96-24.51,33.49
		c-5.14,4.74-9.26,10.12-12.04,16.41c-1.66,3.75-2.77,7.87-3.31,11.93c-0.4,3.03,0.76,6.24,0.79,9.37
		c0.27,34.85,0.45,69.7,0.66,104.55C238.58,460.51,238.6,463.32,238.61,466.34z M158.94,405.63c0.11,18.1,0.19,36.2,0.34,54.3
		c0.06,6.77,4.15,10.73,10.92,10.7c12.84-0.06,25.68-0.13,38.51-0.23c7.82-0.06,11.65-3.88,11.61-11.69
		c-0.19-35.46-0.4-70.92-0.63-106.39c-0.05-7.9-3.79-11.63-11.64-11.6c-12.63,0.04-25.25,0.12-37.88,0.22
		c-7.9,0.07-11.59,3.81-11.55,11.66C158.72,370.27,158.83,387.95,158.94,405.63z"/>
</g>
</svg>
