<?xml version="1.0" encoding="utf-8"?>
<!-- Generator: Adobe Illustrator 25.2.1, SVG Export Plug-In . SVG Version: 6.00 Build 0)  -->
<svg version="1.1" xmlns="http://www.w3.org/2000/svg" xmlns:xlink="http://www.w3.org/1999/xlink" x="0px" y="0px"
	 viewBox="0 0 595.28 841.89" style="enable-background:new 0 0 595.28 841.89;" xml:space="preserve">
<style type="text/css">
	.st0{display:none;}
	.st1{display:inline;}
	.st2{fill:#FEFDFE;}
	.st3{fill:#DF193F;}
	.st4{fill:#FDFDFD;}
	.st5{display:inline;fill:#F99E0B;}
</style>
<g id="Calque_1">
</g>
<g id="Calque_2" class="st0">
	<g class="st1">
		<path class="st2" d="M28.41,641.3c9.06-12.22,18.12-24.44,27.18-36.66c0.12-0.16,0.18-0.17,0.34-0.05
			c11.88,8.82,23.76,17.63,35.65,26.44c0.16,0.12,0.17,0.18,0.05,0.34c-9.02,12.15-18.03,24.31-27.04,36.46
			c-0.12,0.16-0.18,0.17-0.34,0.05C52.31,659.02,40.36,650.16,28.41,641.3z M70.76,622.05c-5.27-3.91-10.55-7.8-15.8-11.74
			c-1.08-0.81-2.87-0.49-3.61,0.55c-0.25,0.35-0.51,0.69-0.76,1.03c-4.02,5.43-8.05,10.85-12.07,16.28c-0.85,1.15-0.6,2.8,0.55,3.65
			c2.63,1.95,5.25,3.9,7.89,5.84c0.22,0.16,0.32,0.35,0.36,0.61c0.57,3.83,1.14,7.65,1.71,11.48c0.06,0.42,0.1,0.45,0.52,0.38
			c3.84-0.57,7.69-1.14,11.53-1.71c0.23-0.03,0.4,0.01,0.59,0.14c2.95,2.2,5.91,4.38,8.86,6.58c1.16,0.87,2.83,0.64,3.72-0.55
			c0.27-0.35,0.51-0.72,0.78-1.07c0.6-0.76,1.16-1.55,1.73-2.33c3.34-4.51,6.68-9.01,10.02-13.52c0.17-0.23,0.36-0.47,0.48-0.73
			c0.49-1.03,0.25-2.53-0.85-3.33C81.17,629.8,75.98,625.91,70.76,622.05z"/>
		<path class="st3" d="M70.76,622.05c5.21,3.87,10.41,7.75,15.65,11.58c1.1,0.81,1.34,2.31,0.85,3.33c-0.12,0.26-0.31,0.5-0.48,0.73
			c-3.34,4.51-6.68,9.01-10.02,13.52c-0.58,0.78-1.14,1.56-1.73,2.33c-0.27,0.35-0.52,0.72-0.78,1.07
			c-0.89,1.18-2.56,1.41-3.72,0.55c-2.95-2.2-5.91-4.39-8.86-6.58c-0.19-0.14-0.36-0.18-0.59-0.14c-3.84,0.57-7.69,1.14-11.53,1.71
			c-0.42,0.06-0.45,0.04-0.52-0.38c-0.57-3.83-1.14-7.65-1.71-11.48c-0.04-0.26-0.14-0.45-0.36-0.61c-2.63-1.94-5.26-3.89-7.89-5.84
			c-1.15-0.85-1.4-2.51-0.55-3.65c4.02-5.43,8.05-10.85,12.07-16.28c0.25-0.34,0.51-0.68,0.76-1.03c0.74-1.04,2.53-1.36,3.61-0.55
			C60.21,614.24,65.49,618.14,70.76,622.05z M68.18,634.81c0.35-0.5,0.7-1,0.91-1.58c0.14-0.39,0.26-0.77,0.33-1.19
			c0.12-0.76,0.03-1.49-0.24-2.19c-0.27-0.7-0.73-1.28-1.25-1.81c-0.75-0.75-1.66-1.13-2.69-1.22c-0.64-0.05-1.28,0.07-1.9,0.2
			c-0.12,0.03-0.16,0-0.17-0.13c-0.04-0.37-0.12-0.73-0.17-1.09c-0.15-1.05-0.67-1.91-1.48-2.57c-0.77-0.62-1.66-0.98-2.65-1.09
			c-0.96-0.11-1.83,0.1-2.66,0.59c-0.32,0.19-0.6,0.4-0.87,0.64c-0.53,0.47-1.04,0.97-1.38,1.6c-0.47,0.87-0.76,1.79-0.88,2.77
			c-0.12,0.97-0.08,1.94,0.01,2.91c0.1,0.97,0.3,1.91,0.55,2.85c0.17,0.62,0.36,1.23,0.58,1.83c0.23,0.62,0.51,1.22,0.77,1.82
			c0.14,0.32,0.32,0.59,0.71,0.64c0.61,0.08,1.21,0.19,1.83,0.23c0.81,0.05,1.61,0.08,2.43,0.04c1.03-0.06,2.06-0.14,3.08-0.36
			c1.07-0.23,2.09-0.54,3.06-1.06C66.91,636.17,67.63,635.59,68.18,634.81z M74.69,637.19c-0.09,0.12-0.15,0.2-0.21,0.28
			c-1.24,1.68-2.49,3.35-3.73,5.03c-0.47,0.63-0.93,1.26-1.4,1.88c-0.1,0.13-0.11,0.21,0.04,0.31c0.24,0.16,0.47,0.32,0.68,0.51
			c0.19,0.16,0.28,0.13,0.43-0.06c1.82-2.47,3.65-4.93,5.47-7.39c0.19-0.26,0.55-0.52,0.51-0.77c-0.04-0.28-0.48-0.4-0.73-0.61
			c-0.1-0.08-0.19-0.14-0.33-0.16c-0.74-0.1-1.48-0.21-2.21-0.33c-0.15-0.02-0.23,0-0.28,0.15c-0.08,0.23-0.17,0.45-0.27,0.66
			c-0.09,0.18-0.03,0.22,0.15,0.24C73.42,637,74.03,637.09,74.69,637.19z"/>
		<path class="st4" d="M68.18,634.81c-0.55,0.78-1.27,1.36-2.11,1.81c-0.97,0.52-1.99,0.83-3.06,1.06
			c-1.02,0.22-2.04,0.31-3.08,0.36c-0.81,0.04-1.62,0.01-2.43-0.04c-0.61-0.04-1.22-0.16-1.83-0.23c-0.39-0.05-0.57-0.32-0.71-0.64
			c-0.26-0.6-0.54-1.2-0.77-1.82c-0.22-0.6-0.41-1.21-0.58-1.83c-0.26-0.93-0.45-1.88-0.55-2.85c-0.1-0.97-0.14-1.93-0.01-2.91
			c0.12-0.98,0.41-1.91,0.88-2.77c0.35-0.63,0.85-1.13,1.38-1.6c0.27-0.24,0.56-0.45,0.87-0.64c0.83-0.49,1.7-0.7,2.66-0.59
			c0.99,0.11,1.89,0.47,2.65,1.09c0.81,0.66,1.33,1.51,1.48,2.57c0.05,0.36,0.13,0.73,0.17,1.09c0.02,0.14,0.05,0.16,0.17,0.13
			c0.63-0.13,1.26-0.26,1.9-0.2c1.03,0.09,1.94,0.47,2.69,1.22c0.53,0.53,0.98,1.11,1.25,1.81c0.27,0.71,0.36,1.44,0.24,2.19
			c-0.06,0.41-0.19,0.8-0.33,1.19C68.88,633.81,68.53,634.31,68.18,634.81z"/>
		<path class="st4" d="M74.69,637.19c-0.66-0.09-1.27-0.19-1.87-0.26c-0.17-0.02-0.24-0.06-0.15-0.24c0.11-0.21,0.2-0.44,0.27-0.66
			c0.05-0.15,0.13-0.17,0.28-0.15c0.74,0.12,1.47,0.22,2.21,0.33c0.13,0.02,0.23,0.08,0.33,0.16c0.25,0.21,0.68,0.34,0.73,0.61
			c0.04,0.26-0.32,0.52-0.51,0.77c-1.82,2.46-3.65,4.92-5.47,7.39c-0.15,0.2-0.24,0.22-0.43,0.06c-0.21-0.19-0.45-0.35-0.68-0.51
			c-0.15-0.1-0.14-0.18-0.04-0.31c0.47-0.62,0.93-1.25,1.4-1.88c1.24-1.68,2.49-3.35,3.73-5.03
			C74.54,637.39,74.6,637.31,74.69,637.19z"/>
	</g>
</g>
<g id="Calque_2_-_copie" class="st0">
	<g class="st1">
		<path class="st2" d="M115.09,618.61c-0.26-130.82-0.52-261.63-0.82-392.45c0-1.72,0.38-2.11,2.1-2.11
			c127.22-0.21,254.44-0.46,381.66-0.76c1.72,0,2.11,0.38,2.11,2.1c0.21,130.13,0.47,260.26,0.78,390.39c0,1.72-0.38,2.11-2.1,2.11
			C370.91,618.09,243,618.35,115.09,618.61z M308.32,268.32c-56.42,0.11-112.85,0.37-169.27,0.22
			c-11.64-0.03-22.29,11.33-22.06,22.36c0.08,3.66,0.04,7.33,0.05,10.99c0.11,58.09,0.22,116.18,0.34,174.27
			c0.03,12.29,10.24,22.39,22.57,22.36c28.13-0.06,56.27-0.09,84.4-0.23c2.36-0.01,4.01,0.76,5.63,2.37
			c23.55,23.49,47.14,46.93,70.72,70.38c2.59,2.57,2.97,2.57,5.53,0c23.59-23.66,47.18-47.32,70.73-71.02
			c1.39-1.4,2.8-2.04,4.82-2.04c31.65-0.01,63.3-0.16,94.96-0.12c12.46,0.01,22.78-10.15,22.82-22.87c0.01-3.8-0.17-7.6-0.09-11.41
			c0.19-8.31,0.02-16.63,0.01-24.95c-0.1-48.24-0.19-96.49-0.3-144.73c-0.01-2.5,0.05-5.06-0.43-7.5
			c-1.92-9.59-11.23-18.72-22.99-18.61C419.94,268.31,364.13,268.2,308.32,268.32z"/>
		<path class="st3" d="M308.32,268.32c55.81-0.11,111.62,0,167.43-0.51c11.76-0.11,21.07,9.02,22.99,18.61
			c0.49,2.43,0.43,4.99,0.43,7.5c0.12,48.24,0.21,96.49,0.3,144.73c0.02,8.32,0.18,16.64-0.01,24.95c-0.09,3.81,0.1,7.61,0.09,11.41
			c-0.04,12.71-10.36,22.88-22.82,22.87c-31.65-0.03-63.3,0.12-94.96,0.12c-2.01,0-3.43,0.63-4.82,2.04
			c-23.55,23.7-47.15,47.35-70.73,71.02c-2.56,2.57-2.94,2.57-5.53,0c-23.58-23.45-47.17-46.89-70.72-70.38
			c-1.62-1.61-3.26-2.38-5.63-2.37c-28.13,0.14-56.27,0.17-84.4,0.23c-12.33,0.02-22.54-10.08-22.57-22.36
			c-0.12-58.09-0.23-116.18-0.34-174.27c-0.01-3.66,0.03-7.33-0.05-10.99c-0.23-11.03,10.41-22.39,22.06-22.36
			C195.47,268.68,251.9,268.43,308.32,268.32z M356.05,369.59c-0.15-5.25-0.33-10.51-1.86-15.59c-1.02-3.37-2.15-6.7-3.83-9.86
			c-3.09-5.82-7.43-10.43-12.94-13.89c-5.46-3.43-11.56-5.07-17.92-6.03c-9.02-1.37-17.24,0.71-24.82,5.41
			c-4.71,2.91-8.46,7.01-12.1,11.16c-0.7,0.8-1.06,0.83-1.87-0.04c-2.16-2.31-4.54-4.42-6.78-6.66
			c-6.47-6.49-14.45-9.72-23.43-10.09c-8.49-0.36-16.49,1.81-23.91,6.11c-7.19,4.17-12.1,10.11-15.32,17.72
			c-1.23,2.9-2.11,5.85-2.73,8.88c-1.23,5.98-2.17,12.02-1.32,18.15c1.17,8.41,3.94,16.24,8.15,23.65
			c4.16,7.33,9.37,13.8,15.03,19.97c5.65,6.16,11.87,11.69,18.44,16.81c4.33,3.37,8.78,6.62,13.4,9.59
			c4.76,3.07,9.76,5.76,14.68,8.58c2.6,1.49,5.25,2.41,8.18,0.75c4.59-2.6,9.38-4.9,13.78-7.78c5.81-3.8,11.55-7.74,16.91-12.2
			c6.84-5.7,13.48-11.53,19.35-18.3c6.14-7.09,11.62-14.49,15.63-23.02C354.25,385.48,356.22,377.8,356.05,369.59z M413.16,352.57
			c0,1.31,0,2.14,0.01,2.96c0.04,17.96,0.07,35.91,0.11,53.87c0.01,6.72,0.07,13.45,0.01,20.17c-0.01,1.44,0.3,2.04,1.87,1.96
			c2.44-0.13,4.9-0.19,7.33-0.01c2.11,0.16,2.65-0.54,2.64-2.64c-0.13-26.36-0.14-52.72-0.22-79.08c-0.01-2.73,1.14-6.39-0.45-7.96
			c-1.71-1.68-5.36-0.35-8.16-0.49c-1.07-0.05-2.08,0.01-3.09,0.56c-5.62,3.08-11.25,6.13-16.93,9.1c-1.16,0.61-1.55,1.17-1.13,2.46
			c0.63,1.96,1.17,3.96,1.52,5.98c0.31,1.74,0.92,1.64,2.23,0.9C403.47,357.78,408.11,355.32,413.16,352.57z"/>
		<path class="st4" d="M356.05,369.59c0.18,8.21-1.8,15.89-5.28,23.32c-4,8.53-9.48,15.93-15.63,23.02
			c-5.87,6.77-12.51,12.6-19.35,18.3c-5.36,4.47-11.1,8.4-16.91,12.2c-4.41,2.88-9.19,5.18-13.78,7.78
			c-2.93,1.66-5.58,0.74-8.18-0.75c-4.92-2.82-9.92-5.51-14.68-8.58c-4.61-2.97-9.06-6.22-13.4-9.59
			c-6.57-5.12-12.8-10.65-18.44-16.81c-5.66-6.17-10.86-12.63-15.03-19.97c-4.21-7.42-6.97-15.25-8.15-23.65
			c-0.86-6.13,0.09-12.16,1.32-18.15c0.62-3.04,1.5-5.98,2.73-8.88c3.22-7.61,8.13-13.56,15.32-17.72
			c7.43-4.3,15.43-6.47,23.91-6.11c8.98,0.38,16.96,3.6,23.43,10.09c2.24,2.24,4.62,4.35,6.78,6.66c0.81,0.86,1.17,0.84,1.87,0.04
			c3.64-4.15,7.39-8.24,12.1-11.16c7.58-4.7,15.8-6.78,24.82-5.41c6.36,0.97,12.46,2.61,17.92,6.03c5.51,3.46,9.85,8.07,12.94,13.89
			c1.68,3.16,2.81,6.48,3.83,9.86C355.72,359.07,355.9,364.34,356.05,369.59z"/>
		<path class="st4" d="M413.16,352.57c-5.05,2.74-9.69,5.21-14.26,7.78c-1.31,0.74-1.93,0.84-2.23-0.9
			c-0.36-2.02-0.9-4.02-1.52-5.98c-0.42-1.3-0.03-1.86,1.13-2.46c5.68-2.97,11.31-6.02,16.93-9.1c1.01-0.55,2.03-0.61,3.09-0.56
			c2.8,0.13,6.45-1.2,8.16,0.49c1.59,1.57,0.44,5.23,0.45,7.96c0.08,26.36,0.09,52.72,0.22,79.08c0.01,2.1-0.52,2.8-2.64,2.64
			c-2.43-0.18-4.89-0.13-7.33,0.01c-1.57,0.09-1.89-0.51-1.87-1.96c0.06-6.72,0-13.45-0.01-20.17c-0.04-17.96-0.07-35.91-0.11-53.87
			C413.16,354.71,413.16,353.88,413.16,352.57z"/>
	</g>
</g>
<g id="Calque_3" class="st0">
	<path class="st5" d="M113.72,626.75c-2.43,1.47-5.05,1.75-7.78,1.22c-2.54-0.49-4.97-1.38-7.45-2.1
		c-5.51-1.61-11.01-3.26-16.51-4.88c-0.46-0.13-0.58-0.29-0.44-0.77c2.25-7.57,4.48-15.15,6.73-22.72c0.72-2.42,2-4.52,4.02-6.02
		c2.45-1.83,5.21-2.83,8.36-2.42c1.94,0.25,3.68,0.93,5.25,2.07c1.76,1.28,3.07,2.94,3.85,4.97c0.88,2.32,1.09,4.7,0.43,7.13
		c-0.13,0.47-0.27,0.94-0.41,1.41c-0.26,0.88-0.24,0.91,0.62,1.17c1.23,0.37,2.46,0.7,3.58,1.38c1.08,0.65,2.04,1.43,2.86,2.36
		c1.49,1.7,2.42,3.68,2.71,5.94c0.43,3.26-0.42,6.16-2.49,8.69c-0.33,0.4-0.71,0.76-1.08,1.13
		C115.32,625.94,114.5,626.32,113.72,626.75z M111.32,622.31c0.3-0.16,0.62-0.28,0.88-0.49c2.1-1.67,2.97-4.61,1.88-7.08
		c-0.86-1.93-2.23-3.26-4.27-3.86c-1.97-0.59-3.95-1.17-5.93-1.76c-0.65-0.19-0.64-0.19-0.46-0.83c0.63-2.16,1.33-4.29,1.87-6.47
		c0.57-2.29-0.13-4.38-1.73-6.01c-1.63-1.66-3.75-2.19-6.01-1.47c-2.17,0.69-3.65,2.17-4.31,4.38c-1.79,6.02-3.56,12.05-5.36,18.07
		c-0.12,0.41-0.05,0.59,0.38,0.71c6.06,1.78,12.11,3.6,18.17,5.37C108.13,623.37,109.78,623.19,111.32,622.31z"/>
</g>
<g id="Calque_3_-_copie" class="st0">
	<path class="st5" d="M490.86,330.75c1.18,26.47-8.3,49.2-24.9,69.22c-15.42,18.59-33.59,34.55-50.61,51.6
		c-37.87,37.93-76.03,75.58-113.96,113.45c-3.14,3.13-4.95,3.46-8.26,0.12c-51.95-52.39-104.07-104.61-156.07-156.95
		c-16.61-16.72-28.07-36.65-31.35-59.93c-3.98-28.29,0.19-55.36,17.64-79.37c10.71-14.75,24.15-25.98,40.47-33.72
		c18.35-8.7,37.84-12.02,57.95-9.25c22.94,3.15,43.42,12.17,60.32,28.42c3.3,3.17,6.48,6.46,9.71,9.7c6.06,6.07,6.4,6.07,12.35,0.17
		c8.5-8.41,16.77-16.99,27.3-23.13c10.15-5.92,20.87-10.3,32.19-12.85c20.6-4.63,40.95-3.34,60.8,4.35
		c28.67,11.11,48.55,31.05,60.06,59.39c1.83,4.49,3.02,9.25,4.43,13.9C491.41,314.02,490.83,322.41,490.86,330.75z M443.67,330.54
		c0.01-3.15,0.48-6.38-0.05-9.44c-4.24-24.67-24.47-45.04-49.55-47.12c-19.65-1.63-36.7,3.72-50.8,17.7
		c-13.67,13.55-27.31,27.12-40.97,40.68c-4.46,4.43-4.47,4.42-8.86,0.03c-14.84-14.83-29.21-30.17-44.64-44.35
		c-16.22-14.91-36.46-18.56-56.95-12.74c-20.92,5.94-34.74,20.91-38.98,42.7c-4.07,20.91,1.48,39.64,16.63,54.93
		c41.3,41.69,82.77,83.2,124.1,124.87c2.79,2.82,4.6,3,7.53,0.08c41.76-41.67,83.73-83.14,125.42-124.88
		C438.1,361.42,444.02,347.11,443.67,330.54z"/>
</g>
<g id="Calque_4" class="st0">
	<g class="st1">
		<path d="M79.77,580.12c0-0.19,0-0.32,0-0.45c0.03-3.06,0.05-6.13,0.08-9.19c0-0.27-0.08-0.46-0.27-0.64
			c-0.57-0.56-1.18-1.09-1.68-1.71c-0.74-0.92-1.46-1.86-2.09-2.86c-0.96-1.53-1.67-3.18-2.13-4.93c-0.2-0.76-0.35-1.53-0.46-2.3
			c-0.15-1.03-0.28-2.06-0.33-3.1c-0.11-2.38,0.33-4.67,1.14-6.9c0.64-1.75,1.56-3.34,2.67-4.83c1.03-1.39,2.29-2.57,3.6-3.68
			c1.22-1.04,2.59-1.87,4.03-2.61c1.53-0.79,3.12-1.42,4.78-1.85c1.2-0.31,2.43-0.49,3.65-0.69c1.59-0.26,3.2-0.36,4.8-0.17
			c0.87,0.1,1.74,0.28,2.59,0.48c1,0.24,1.98,0.52,2.96,0.84c0.58,0.19,1.14,0.47,1.7,0.73c1.29,0.59,2.5,1.31,3.65,2.13
			c1.35,0.96,2.59,2.04,3.67,3.3c0.61,0.71,1.22,1.43,1.75,2.21c0.69,1.02,1.31,2.09,1.8,3.23c0.49,1.14,0.86,2.31,1.16,3.51
			c0.39,1.57,0.55,3.17,0.42,4.77c-0.09,1.13-0.28,2.25-0.49,3.37c-0.16,0.84-0.38,1.68-0.68,2.48c-0.39,1.04-0.85,2.07-1.36,3.06
			c-0.39,0.75-0.86,1.46-1.38,2.12c-0.76,0.96-1.55,1.9-2.41,2.77c-0.78,0.79-1.67,1.46-2.6,2.09c-1.03,0.69-2.1,1.31-3.24,1.8
			c-1.26,0.55-2.55,1.02-3.91,1.27c-1.01,0.19-2.03,0.39-3.06,0.47c-1.15,0.1-2.3,0.11-3.45,0.09c-0.79-0.02-1.57-0.15-2.36-0.24
			c-0.01,0-0.02,0-0.03,0c-0.66-0.06-1.32-0.09-1.98-0.18c-0.49-0.06-0.91,0.09-1.32,0.33c-0.82,0.47-1.64,0.94-2.45,1.41
			c-1.49,0.86-2.98,1.73-4.47,2.58C81.34,579.26,80.59,579.66,79.77,580.12z M83.36,574.91c0.15-0.08,0.26-0.13,0.36-0.19
			c1.81-1.18,3.62-2.36,5.42-3.56c0.23-0.15,0.46-0.18,0.72-0.16c1.69,0.15,3.37,0.33,5.06,0.44c2.23,0.14,4.43-0.07,6.59-0.66
			c1.67-0.46,3.23-1.15,4.7-2.07c1.74-1.09,3.25-2.45,4.41-4.14c0.63-0.92,1.21-1.89,1.68-2.89c0.72-1.55,1.16-3.2,1.36-4.91
			c0.2-1.77,0.19-3.52-0.18-5.26c-0.6-2.74-1.86-5.17-3.68-7.28c-1.92-2.22-4.23-3.93-6.94-5.1c-1.89-0.82-3.85-1.37-5.91-1.42
			c-1.39-0.04-2.8-0.02-4.18,0.14c-1.16,0.13-2.3,0.44-3.43,0.76c-2.6,0.74-4.97,1.97-7.04,3.7c-2.22,1.86-3.91,4.13-4.94,6.86
			c-0.44,1.18-0.79,2.39-0.88,3.64c-0.09,1.29-0.02,2.59,0.06,3.88c0.12,1.79,0.66,3.48,1.41,5.1c1.19,2.58,2.96,4.72,5.12,6.55
			c0.22,0.19,0.32,0.39,0.31,0.68c-0.03,1.8-0.04,3.6-0.05,5.39C83.33,574.57,83.35,574.71,83.36,574.91z"/>
		<path d="M95.07,551.98c1.53-0.13,2.66,1.31,2.67,2.59c0.01,1.29-1.21,2.64-2.67,2.63c-1.45-0.01-2.65-1.32-2.63-2.66
			C92.46,553.2,93.74,551.81,95.07,551.98z"/>
		<path d="M105.81,552.07c1.36-0.15,2.6,1.28,2.6,2.63c0,1.22-1.18,2.62-2.7,2.59c-1.42-0.03-2.64-1.36-2.6-2.66
			C103.14,553.33,104.3,551.91,105.81,552.07z"/>
		<path d="M84.43,551.89c1.51-0.13,2.64,1.35,2.65,2.62c0.01,1.18-1.15,2.62-2.69,2.6c-1.49-0.02-2.63-1.48-2.62-2.65
			C81.77,553.34,82.96,551.7,84.43,551.89z"/>
	</g>
</g>
<g id="Calque_4_-_copie" class="st0">
	<g class="st1">
		<path d="M180.18,556.92c0-1.61-0.01-2.69-0.01-3.77c-0.07-25.45-0.17-50.91-0.17-76.36c0-2.22-0.67-3.77-2.28-5.3
			c-4.82-4.57-9.88-8.97-14.09-14.06c-6.24-7.55-12.31-15.32-17.59-23.56c-8.08-12.6-14.16-26.26-18.14-40.73
			c-1.72-6.27-3.07-12.68-4.05-19.1c-1.3-8.52-2.5-17.1-3-25.69c-1.16-19.72,2.28-38.79,8.86-57.39
			c5.17-14.59,12.65-27.92,21.7-40.35c8.45-11.6,18.82-21.52,29.56-30.92c10.03-8.78,21.38-15.79,33.2-22.04
			c12.64-6.68,25.79-12.09,39.55-15.79c9.91-2.66,20.1-4.32,30.23-6.06c13.19-2.27,26.52-3.28,39.87-1.82
			c7.25,0.79,14.47,2.14,21.58,3.77c8.29,1.9,16.51,4.15,24.63,6.69c4.87,1.52,9.51,3.8,14.19,5.87
			c10.74,4.76,20.9,10.62,30.51,17.33c11.26,7.87,21.71,16.74,30.8,27.07c5.14,5.85,10.26,11.78,14.7,18.16
			c5.86,8.4,11.07,17.25,15.28,26.64c4.21,9.4,7.38,19.11,9.96,29.08c3.38,13.04,4.83,26.26,3.9,39.62
			c-0.65,9.39-2.09,18.75-3.78,28.02c-1.28,7-3,14-5.43,20.68c-3.17,8.71-6.85,17.29-11.02,25.57c-3.14,6.23-6.97,12.22-11.23,17.75
			c-6.2,8.04-12.7,15.91-19.74,23.21c-6.4,6.63-13.73,12.31-21.41,17.56c-8.53,5.84-17.36,11.05-26.76,15.29
			c-10.4,4.69-21.09,8.68-32.32,10.88c-8.4,1.65-16.84,3.4-25.34,4.21c-9.5,0.91-19.11,1.14-28.66,1.07
			c-6.55-0.05-13.09-1.14-19.64-1.77c-0.09-0.01-0.18-0.03-0.27-0.04c-5.48-0.41-10.98-0.65-16.43-1.3
			c-4.11-0.49-7.53,0.85-10.9,2.86c-6.73,4-13.5,7.93-20.23,11.91c-12.3,7.28-24.57,14.62-36.9,21.87
			C193.17,549.6,186.95,553.05,180.18,556.92z M209.55,513.34c1.27-0.69,2.15-1.08,2.94-1.61c14.92-9.99,29.86-19.96,44.73-30.03
			c1.92-1.3,3.79-1.55,5.97-1.37c14.03,1.12,28.05,2.46,42.1,3.17c18.51,0.94,36.79-0.99,54.65-6.09
			c13.79-3.94,26.76-9.81,38.81-17.6c14.32-9.24,26.74-20.61,36.24-34.77c5.15-7.68,9.91-15.77,13.71-24.19
			c5.84-12.95,9.32-26.66,10.81-40.9c1.54-14.69,1.27-29.26-2.02-43.64c-5.2-22.7-15.88-42.73-31.23-60.15
			c-16.12-18.3-35.51-32.24-58.08-41.68c-15.77-6.6-32.1-11.02-49.23-11.27c-11.57-0.17-23.24,0.13-34.7,1.54
			c-9.61,1.19-19.1,3.87-28.43,6.62c-21.54,6.35-41.07,16.84-58.12,31.39c-18.29,15.61-32.09,34.63-40.37,57.43
			c-3.57,9.83-6.35,19.96-6.98,30.29c-0.65,10.69,0.04,21.53,0.89,32.24c1.18,14.83,5.78,28.87,12.15,42.21
			c10.16,21.28,25,38.97,43.12,53.94c1.87,1.55,2.68,3.19,2.67,5.66c-0.06,14.94,0.03,29.87,0.09,44.81
			C209.3,510.51,209.44,511.66,209.55,513.34z"/>
		<path d="M304.74,321.79c12.67-1.22,22.2,10.64,22.44,21.29c0.24,10.69-9.79,22.03-21.92,22.05
			c-12.03,0.03-22.11-10.72-22.12-21.84C283.13,332.14,293.63,320.49,304.74,321.79z"/>
		<path d="M393.93,321.53c11.3-1.39,21.75,10.42,21.85,21.59c0.09,10.1-9.55,21.86-22.22,21.76c-11.81-0.09-22.01-11.08-21.86-21.84
			C371.84,332.26,381.39,320.41,393.93,321.53z"/>
		<path d="M216.32,322.04c12.52-1.21,22.08,10.99,22.25,21.48c0.17,9.77-9.31,21.89-22.12,21.88
			c-12.34-0.01-21.96-12.09-22.03-21.76C194.36,334.31,204.12,320.6,216.32,322.04z"/>
	</g>
</g>
<g id="Calque_5" class="st0">
	<path class="st1" d="M152.5,546.03c5.5,2.12,11.01,4.24,16.51,6.36c0.73,0.28,1.13,1.11,0.8,1.68c-0.13,0.22-0.3,0.44-0.48,0.62
		c-8.2,8.5-16.41,17-24.62,25.5c-0.5,0.52-1.05,0.65-1.61,0.39c-0.56-0.26-0.8-0.78-0.71-1.53c0.82-6.58,1.64-13.16,2.48-19.73
		c0.04-0.29-0.01-0.53-0.16-0.78c-3.45-5.64-6.88-11.29-10.32-16.94c-0.29-0.48-0.39-0.96-0.09-1.46c0.28-0.46,0.71-0.67,1.25-0.61
		c0.18,0.02,0.36,0.09,0.53,0.16C141.54,541.8,147.02,543.92,152.5,546.03z M138.54,543.38c-0.03,0.02-0.06,0.04-0.09,0.06
		c0.03,0.04,0.07,0.07,0.1,0.12c2.7,4.45,5.4,8.9,8.1,13.36c0.12,0.2,0.24,0.22,0.45,0.17c5.58-1.24,11.17-2.48,16.75-3.72
		c0.09-0.02,0.17-0.06,0.31-0.11C155.57,549.95,147.05,546.67,138.54,543.38z M145.41,575.67c0.03,0.02,0.06,0.03,0.09,0.05
		c6.39-6.61,12.78-13.23,19.17-19.84c-0.14-0.04-0.22-0.03-0.31-0.01c-5.55,1.24-11.09,2.49-16.64,3.72
		c-0.31,0.07-0.35,0.23-0.38,0.49c-0.45,3.65-0.9,7.3-1.35,10.95C145.79,572.58,145.6,574.12,145.41,575.67z"/>
	<g class="st1">
		<path class="st2" d="M184.41,560.12c-2.72-19.53-5.45-39.07-8.18-58.6c-0.04-0.26,0.01-0.32,0.27-0.36
			c19-2.64,37.99-5.29,56.99-7.95c0.26-0.04,0.32,0.01,0.36,0.27c2.7,19.43,5.41,38.86,8.13,58.29c0.04,0.26-0.01,0.32-0.27,0.36
			C222.6,554.79,203.5,557.46,184.41,560.12z M206.07,503.83c-8.42,1.18-16.85,2.37-25.28,3.51c-1.74,0.23-3.1,2.15-2.84,3.79
			c0.09,0.55,0.16,1.09,0.23,1.64c1.21,8.67,2.42,17.35,3.63,26.02c0.26,1.83,1.99,3.13,3.83,2.88c4.2-0.59,8.4-1.17,12.6-1.77
			c0.35-0.05,0.61,0.03,0.89,0.24c4,3.02,8,6.04,12.01,9.06c0.44,0.33,0.5,0.32,0.83-0.11c3.04-4.02,6.07-8.04,9.11-12.06
			c0.18-0.24,0.38-0.36,0.68-0.4c4.73-0.65,9.45-1.32,14.18-1.97c1.86-0.25,3.19-1.98,2.94-3.88c-0.08-0.57-0.18-1.13-0.25-1.7
			c-0.14-1.25-0.34-2.48-0.51-3.73c-1-7.2-2.01-14.41-3.02-21.61c-0.05-0.37-0.1-0.76-0.22-1.11c-0.48-1.39-2.06-2.57-3.82-2.31
			C222.75,501.54,214.41,502.67,206.07,503.83z"/>
		<path class="st3" d="M206.07,503.83c8.33-1.16,16.67-2.29,25-3.51c1.75-0.26,3.33,0.91,3.82,2.31c0.12,0.35,0.17,0.74,0.22,1.11
			c1.01,7.2,2.01,14.41,3.02,21.61c0.17,1.24,0.37,2.48,0.51,3.73c0.07,0.57,0.17,1.13,0.25,1.7c0.26,1.9-1.08,3.63-2.94,3.88
			c-4.73,0.65-9.45,1.32-14.18,1.97c-0.3,0.04-0.5,0.17-0.68,0.4c-3.03,4.02-6.07,8.04-9.11,12.06c-0.33,0.44-0.39,0.44-0.83,0.11
			c-4-3.02-8.01-6.04-12.01-9.06c-0.27-0.21-0.54-0.29-0.89-0.24c-4.2,0.6-8.4,1.18-12.6,1.77c-1.84,0.26-3.57-1.04-3.83-2.88
			c-1.21-8.67-2.42-17.35-3.63-26.02c-0.08-0.55-0.15-1.1-0.23-1.64c-0.26-1.64,1.1-3.56,2.84-3.79
			C189.23,506.21,197.65,505.01,206.07,503.83z M215.28,517.98c-0.13-0.78-0.26-1.56-0.6-2.29c-0.22-0.48-0.46-0.96-0.77-1.39
			c-0.58-0.81-1.32-1.41-2.22-1.81c-0.89-0.4-1.83-0.52-2.8-0.53c-1.37-0.02-2.56,0.46-3.6,1.32c-0.64,0.53-1.12,1.22-1.58,1.92
			c-0.09,0.13-0.14,0.15-0.28,0.03c-0.37-0.3-0.77-0.57-1.15-0.86c-1.1-0.84-2.36-1.15-3.71-1.03c-1.27,0.12-2.43,0.61-3.45,1.4
			c-0.99,0.77-1.6,1.76-1.92,2.96c-0.12,0.46-0.19,0.92-0.22,1.38c-0.06,0.92-0.08,1.84,0.18,2.74c0.35,1.23,0.92,2.34,1.7,3.37
			c0.77,1.01,1.68,1.87,2.65,2.67c0.97,0.8,2.01,1.5,3.1,2.13c0.72,0.41,1.45,0.81,2.2,1.16c0.77,0.36,1.58,0.66,2.37,0.98
			c0.42,0.17,0.83,0.25,1.24-0.06c0.63-0.48,1.3-0.92,1.9-1.44c0.79-0.69,1.57-1.39,2.28-2.17c0.9-0.99,1.78-2,2.51-3.13
			c0.77-1.19,1.44-2.4,1.86-3.76C215.34,520.39,215.48,519.2,215.28,517.98z M223.46,514.27c0.03,0.2,0.04,0.32,0.06,0.44
			c0.37,2.68,0.75,5.36,1.12,8.04c0.14,1,0.29,2.01,0.42,3.01c0.03,0.22,0.09,0.3,0.32,0.25c0.36-0.07,0.73-0.13,1.09-0.15
			c0.32-0.02,0.38-0.13,0.34-0.45c-0.56-3.93-1.1-7.87-1.66-11.81c-0.06-0.41,0.04-0.98-0.23-1.18c-0.29-0.22-0.81,0.06-1.23,0.09
			c-0.16,0.01-0.31,0.04-0.45,0.15c-0.78,0.58-1.55,1.15-2.34,1.71c-0.16,0.11-0.21,0.21-0.12,0.39c0.13,0.28,0.26,0.57,0.35,0.86
			c0.08,0.25,0.17,0.23,0.35,0.09C222.12,515.24,222.76,514.78,223.46,514.27z"/>
		<path class="st4" d="M215.28,517.98c0.19,1.22,0.06,2.41-0.31,3.59c-0.42,1.36-1.09,2.57-1.86,3.76
			c-0.74,1.13-1.61,2.14-2.51,3.13c-0.71,0.78-1.49,1.48-2.28,2.17c-0.6,0.52-1.27,0.96-1.9,1.44c-0.4,0.31-0.82,0.23-1.24,0.06
			c-0.79-0.32-1.59-0.62-2.37-0.98c-0.75-0.35-1.48-0.74-2.2-1.16c-1.09-0.63-2.13-1.33-3.1-2.13c-0.97-0.81-1.88-1.66-2.65-2.67
			c-0.78-1.02-1.35-2.13-1.7-3.37c-0.25-0.9-0.24-1.82-0.18-2.74c0.03-0.47,0.1-0.92,0.22-1.38c0.32-1.2,0.94-2.19,1.92-2.96
			c1.02-0.8,2.17-1.28,3.45-1.4c1.35-0.13,2.61,0.19,3.71,1.03c0.38,0.29,0.78,0.55,1.15,0.86c0.14,0.11,0.19,0.1,0.28-0.03
			c0.46-0.69,0.93-1.38,1.58-1.92c1.04-0.86,2.22-1.34,3.6-1.32c0.97,0.01,1.92,0.13,2.8,0.53c0.89,0.4,1.64,1,2.22,1.81
			c0.32,0.44,0.55,0.91,0.77,1.39C215.02,516.42,215.15,517.2,215.28,517.98z"/>
		<path class="st4" d="M223.46,514.27c-0.7,0.51-1.34,0.98-1.97,1.46c-0.18,0.14-0.27,0.16-0.35-0.09
			c-0.09-0.29-0.22-0.58-0.35-0.86c-0.09-0.19-0.04-0.28,0.12-0.39c0.79-0.56,1.57-1.13,2.34-1.71c0.14-0.1,0.29-0.13,0.45-0.15
			c0.42-0.04,0.94-0.31,1.23-0.09c0.27,0.2,0.17,0.77,0.23,1.18c0.55,3.94,1.1,7.87,1.66,11.81c0.04,0.31-0.02,0.43-0.34,0.45
			c-0.37,0.02-0.73,0.08-1.09,0.15c-0.23,0.05-0.29-0.04-0.32-0.25c-0.13-1.01-0.28-2.01-0.42-3.01c-0.37-2.68-0.75-5.36-1.12-8.04
			C223.51,514.58,223.49,514.46,223.46,514.27z"/>
	</g>
	<path class="st5" d="M207.16,454.35c-0.79,3.96-3.02,6.98-6.2,9.34c-2.96,2.19-6.23,3.9-9.37,5.8c-6.99,4.24-14,8.43-21,12.66
		c-0.58,0.35-0.86,0.33-1.23-0.28c-5.79-9.64-11.61-19.27-17.4-28.91c-1.85-3.08-2.82-6.45-2.46-10.01
		c0.44-4.33,2.04-8.19,5.5-11.11c2.12-1.79,4.52-2.97,7.22-3.52c3.03-0.62,6.04-0.4,8.92,0.74c3.28,1.3,5.99,3.38,7.9,6.4
		c0.37,0.59,0.72,1.19,1.08,1.79c0.68,1.12,0.73,1.13,1.82,0.47c1.56-0.94,3.1-1.91,4.88-2.43c1.72-0.51,3.46-0.77,5.23-0.73
		c3.22,0.06,6.18,0.99,8.84,2.85c3.84,2.69,6.06,6.36,6.73,10.98c0.11,0.73,0.11,1.48,0.15,2.22
		C207.85,451.9,207.46,453.12,207.16,454.35z M200.18,452.61c0.12-0.47,0.3-0.93,0.34-1.4c0.27-3.81-1.99-7.56-5.62-8.78
		c-2.85-0.95-5.57-0.78-8.17,0.77c-2.52,1.51-5.03,3.02-7.54,4.53c-0.82,0.49-0.82,0.49-1.31-0.32c-1.66-2.74-3.23-5.53-5-8.19
		c-1.86-2.8-4.72-4.07-7.97-3.96c-3.31,0.12-5.9,1.83-7.32,4.91c-1.36,2.95-1.22,5.92,0.47,8.74c4.6,7.67,9.23,15.33,13.84,23
		c0.31,0.52,0.57,0.61,1.11,0.29c7.7-4.65,15.42-9.27,23.11-13.93C198.24,456.98,199.63,455.07,200.18,452.61z"/>
	<g class="st1">
		<path d="M281.67,398.92c0.1,0.24,0.17,0.4,0.24,0.55c1.63,3.75,3.27,7.49,4.89,11.24c0.14,0.33,0.34,0.51,0.67,0.64
			c1,0.37,2.03,0.69,2.97,1.17c1.4,0.71,2.79,1.48,4.09,2.35c1.99,1.34,3.76,2.97,5.27,4.85c0.65,0.81,1.26,1.67,1.81,2.56
			c0.73,1.17,1.46,2.36,2.08,3.6c1.43,2.83,2.13,5.86,2.35,9.02c0.17,2.48-0.09,4.92-0.63,7.33c-0.51,2.25-1.4,4.37-2.39,6.44
			c-0.92,1.93-2.15,3.69-3.49,5.36c-1.44,1.79-3.03,3.42-4.82,4.84c-1.29,1.02-2.69,1.92-4.07,2.82c-1.8,1.17-3.7,2.17-5.76,2.81
			c-1.12,0.34-2.27,0.61-3.42,0.82c-1.34,0.25-2.7,0.44-4.06,0.58c-0.81,0.09-1.64,0.05-2.47,0.04c-1.89-0.02-3.76-0.23-5.6-0.61
			c-2.16-0.44-4.27-1.08-6.26-2.03c-1.13-0.53-2.26-1.08-3.32-1.74c-1.4-0.87-2.73-1.84-3.95-2.95c-1.22-1.12-2.3-2.35-3.32-3.65
			c-1.33-1.71-2.38-3.56-3.1-5.59c-0.5-1.43-0.89-2.9-1.23-4.37c-0.26-1.11-0.45-2.26-0.52-3.39c-0.09-1.49-0.09-2.98,0-4.47
			c0.07-1.12,0.25-2.25,0.53-3.33c0.4-1.58,0.86-3.15,1.43-4.68c0.52-1.39,1.24-2.69,2.04-3.95c0.89-1.4,1.86-2.73,2.97-3.96
			c1.24-1.35,2.56-2.62,4.07-3.66c1.13-0.78,2.27-1.57,3.47-2.23c1.34-0.74,2.74-1.38,4.16-1.98c0.97-0.41,2-0.67,3.01-0.99
			c0.01,0,0.03-0.01,0.04-0.01c0.83-0.29,1.66-0.6,2.5-0.86c0.64-0.19,1.06-0.6,1.43-1.12c0.74-1.02,1.49-2.03,2.22-3.04
			c1.35-1.86,2.69-3.72,4.05-5.57C280.22,400.82,280.91,399.92,281.67,398.92z M280.11,407.21c-0.14,0.18-0.25,0.3-0.33,0.42
			c-1.56,2.42-3.13,4.84-4.68,7.27c-0.2,0.31-0.46,0.47-0.79,0.58c-2.14,0.73-4.29,1.42-6.41,2.21c-2.79,1.04-5.36,2.49-7.67,4.38
			c-1.78,1.46-3.32,3.15-4.6,5.06c-1.52,2.27-2.63,4.74-3.13,7.43c-0.27,1.46-0.46,2.96-0.48,4.44c-0.04,2.28,0.32,4.52,1.01,6.72
			c0.71,2.26,1.68,4.39,3.08,6.3c2.21,3.02,5.06,5.29,8.43,6.88c3.54,1.67,7.29,2.49,11.21,2.45c2.75-0.03,5.43-0.42,7.97-1.47
			c1.72-0.71,3.42-1.5,5.02-2.44c1.34-0.79,2.57-1.79,3.77-2.79c2.77-2.31,4.98-5.1,6.57-8.33c1.7-3.47,2.53-7.15,2.29-11.04
			c-0.1-1.68-0.33-3.35-0.9-4.91c-0.58-1.62-1.38-3.17-2.18-4.7c-1.12-2.11-2.69-3.89-4.48-5.45c-2.85-2.49-6.17-4.15-9.79-5.21
			c-0.37-0.11-0.6-0.3-0.75-0.66c-0.94-2.21-1.91-4.4-2.87-6.6C280.33,407.61,280.23,407.45,280.11,407.21z"/>
		<path d="M278.27,441.51c-1.79,0.99-3.95-0.16-4.66-1.71c-0.72-1.56,0.04-3.87,1.83-4.65c1.77-0.77,3.94,0.17,4.65,1.81
			C280.8,438.61,279.99,440.99,278.27,441.51z"/>
		<path d="M265.14,447.22c-1.58,0.92-3.87-0.15-4.59-1.79c-0.66-1.48,0.02-3.83,1.89-4.62c1.75-0.74,3.95,0.23,4.61,1.83
			C267.72,444.24,267.06,446.59,265.14,447.22z"/>
		<path d="M291.29,435.84c-1.77,0.98-3.95-0.21-4.65-1.75c-0.65-1.43-0.02-3.82,1.87-4.63c1.82-0.78,4.01,0.38,4.63,1.81
			C293.75,432.63,293.18,435.28,291.29,435.84z"/>
	</g>
	<path class="st1" d="M132.77,386.3c1.9-9.37,3.8-18.75,5.7-28.12c0.25-1.25,1.46-2.11,2.47-1.73c0.39,0.15,0.78,0.35,1.13,0.59
		c15.82,10.81,31.63,21.63,47.44,32.45c0.97,0.66,1.33,1.51,1.06,2.47c-0.26,0.96-1.04,1.49-2.26,1.55
		c-10.74,0.47-21.48,0.93-32.22,1.39c-0.48,0.02-0.84,0.16-1.2,0.48c-8.09,7.04-16.19,14.06-24.28,21.09
		c-0.69,0.6-1.44,0.88-2.31,0.54c-0.81-0.32-1.26-0.95-1.31-1.83c-0.02-0.29,0.05-0.6,0.11-0.89
		C128.99,404.96,130.88,395.63,132.77,386.3z M132.33,409.33c0.04,0.04,0.08,0.08,0.12,0.12c0.05-0.06,0.1-0.14,0.16-0.19
		c6.38-5.53,12.77-11.05,19.16-16.57c0.29-0.25,0.29-0.44,0.16-0.76c-3.5-8.59-7-17.19-10.49-25.78c-0.06-0.14-0.14-0.26-0.26-0.47
		C138.21,380.31,135.27,394.82,132.33,409.33z M182.08,389.6c0.02-0.05,0.04-0.1,0.05-0.15c-12.31-8.42-24.61-16.85-36.92-25.27
		c-0.03,0.23,0.02,0.37,0.07,0.5c3.49,8.53,6.99,17.06,10.46,25.59c0.2,0.48,0.47,0.5,0.88,0.48c5.96-0.27,11.92-0.54,17.88-0.81
		C177.04,389.83,179.56,389.72,182.08,389.6z"/>
	<path class="st1" d="M155.43,483.48c0.43,0.71,0.96,1.37,1.26,2.13c0.71,1.83,0.29,3.55-0.79,5.12c-1.17,1.72-2.84,2.86-4.55,3.98
		c-1.19,0.78-2.33,1.63-3.47,2.47c-0.24,0.18-0.43,0.43-0.68,0.69c0.81,0.46,1.57,0.88,2.31,1.33c2.17,1.34,4.23,2.81,5.78,4.88
		c0.88,1.18,1.47,2.48,1.35,3.99c-0.13,1.69-1,2.93-2.42,3.8c-0.25,0.16-0.37,0.32-0.4,0.62c-0.24,2.25-1.63,3.89-3.83,4.48
		c-0.41,0.11-0.62,0.31-0.8,0.69c-0.9,1.88-2.41,2.98-4.48,3.25c-0.55,0.07-0.91,0.25-1.28,0.69c-1.43,1.72-3.32,2.24-5.48,1.85
		c-1.91-0.34-3.61-1.21-5.12-2.39c-3.08-2.41-5.94-5.07-8.75-7.78c-1.74-1.69-3.37-3.48-5.07-5.22c-0.15-0.15-0.36-0.29-0.56-0.33
		c-0.71-0.14-1.33-0.45-1.88-0.91c-1.34-1.14-2.69-2.28-4.02-3.44c-1.42-1.24-1.8-2.95-1.01-4.62c0.17-0.35,0.4-0.68,0.66-0.98
		c3.07-3.61,6.16-7.21,9.24-10.8c1.58-1.84,3.83-2.01,5.68-0.43c1.15,0.98,2.29,1.97,3.44,2.94c0.66,0.56,1.31,1.12,1.63,1.99
		c1.07-0.46,2.14-0.83,3.27-0.86c1.2-0.02,2.38-0.18,3.49-0.59c2.15-0.79,4.29-1.62,6.4-2.51c1.31-0.55,2.56-1.24,3.81-1.91
		c0.35-0.19,0.63-0.53,0.93-0.82c0.62-0.59,1.18-1.26,1.85-1.77c0.81-0.61,1.75-0.64,2.68-0.21
		C154.91,483.04,155.17,483.26,155.43,483.48z M121.47,507.09c0.03,0.04,0.07,0.09,0.12,0.14c1.67,1.7,3.27,3.47,5.02,5.08
		c2.57,2.37,5.21,4.66,7.88,6.91c1.07,0.9,2.35,1.5,3.74,1.8c1.65,0.36,2.94-0.12,3.72-1.52c0.42-0.75,0.96-0.99,1.78-0.97
		c1.72,0.05,3.03-0.87,3.48-2.46c0.23-0.82,0.7-1.21,1.53-1.32c1.81-0.26,2.74-1.32,2.7-3.13c-0.02-0.85,0.32-1.32,1.1-1.63
		c1.63-0.65,2.19-2.18,1.28-3.69c-0.49-0.82-1.15-1.57-1.83-2.25c-1.82-1.79-4.02-3.02-6.25-4.22c-1.13-0.61-1.52-1.83-0.8-2.9
		c0.49-0.72,1.07-1.45,1.75-1.97c1.37-1.06,2.84-1.98,4.27-2.95c1.09-0.74,2.11-1.55,2.89-2.63c0.99-1.37,0.98-2.75-0.04-4.04
		c-0.31-0.4-0.45-0.43-0.8-0.07c-0.39,0.4-0.74,0.85-1.12,1.26c-0.26,0.29-0.49,0.65-0.82,0.83c-3.07,1.71-6.23,3.22-9.54,4.41
		c-1.75,0.63-3.54,1.18-5.42,1.24c-0.94,0.03-1.83,0.21-2.66,0.61c-0.5,0.23-0.97,0.55-1.38,0.92c-0.31,0.27-0.47,0.7-0.74,1.02
		c-3.03,3.55-6.07,7.1-9.1,10.64C121.98,506.49,121.74,506.78,121.47,507.09z M118.73,493.95c-1.58,1.84-3.16,3.68-4.73,5.53
		c-0.59,0.69-0.52,1.45,0.17,2.04c1.3,1.12,2.61,2.24,3.92,3.35c0.8,0.68,1.52,0.63,2.2-0.17c3.09-3.61,6.18-7.22,9.27-10.83
		c0.69-0.8,0.64-1.51-0.16-2.2c-1.28-1.1-2.57-2.2-3.86-3.3c-0.81-0.69-1.51-0.63-2.19,0.17
		C121.81,490.35,120.27,492.15,118.73,493.95z"/>
	<path class="st5" d="M271.58,327.55c2.21,5.5,1.89,11-0.13,16.46c-1.88,5.07-4.54,9.78-6.87,14.64
		c-5.19,10.81-10.46,21.58-15.67,32.39c-0.43,0.89-0.79,1.1-1.74,0.64c-14.85-7.22-29.71-14.39-44.57-21.59
		c-4.74-2.3-8.64-5.66-11.05-10.33c-2.93-5.68-4.06-11.7-2.15-18.06c1.17-3.91,3.18-7.27,6.05-10.11c3.23-3.19,7.1-5.34,11.55-6.24
		c5.08-1.03,10.07-0.64,14.84,1.54c0.93,0.43,1.85,0.89,2.77,1.33c1.73,0.83,1.8,0.81,2.62-0.88c1.17-2.41,2.28-4.83,4.05-6.9
		c1.7-2,3.64-3.72,5.85-5.09c4.01-2.5,8.4-3.74,13.16-3.58c6.87,0.22,12.55,2.96,17.08,8.09c0.72,0.81,1.32,1.73,1.96,2.61
		C270.45,323.98,270.95,325.79,271.58,327.55z M261.6,331c-0.23-0.67-0.37-1.38-0.71-1.99c-2.72-4.89-8.5-7.7-13.95-6.28
		c-4.27,1.11-7.47,3.5-9.42,7.5c-1.88,3.87-3.76,7.75-5.64,11.62c-0.61,1.27-0.62,1.26-1.87,0.66c-4.23-2.03-8.4-4.21-12.71-6.06
		c-4.53-1.95-9.07-1.22-12.97,1.52c-3.98,2.8-5.79,6.99-5.07,11.9c0.69,4.72,3.25,8.26,7.58,10.37
		c11.8,5.74,23.63,11.44,35.44,17.18c0.8,0.39,1.19,0.29,1.6-0.54c5.73-11.89,11.53-23.75,17.24-35.65
		C262.71,337.93,262.9,334.47,261.6,331z"/>
	<g class="st1">
		<path class="st3" d="M355.19,304.01c10.97,8.28,21.92,16.59,32.95,24.79c2.33,1.73,2.8,4.9,1.75,7.07
			c-0.27,0.55-0.66,1.04-1.03,1.54c-7.15,9.49-14.3,18.97-21.46,28.46c-1.23,1.64-2.44,3.29-3.71,4.9
			c-0.58,0.74-1.11,1.51-1.68,2.25c-1.9,2.49-5.44,2.95-7.88,1.1c-6.21-4.71-12.45-9.39-18.66-14.09c-0.4-0.3-0.77-0.38-1.25-0.32
			c-8.15,1.15-16.3,2.29-24.44,3.43c-0.88,0.12-0.96,0.07-1.09-0.82c-1.14-8.11-2.29-16.22-3.42-24.33
			c-0.08-0.56-0.29-0.95-0.75-1.3c-5.54-4.16-11.07-8.33-16.6-12.5c-2.42-1.83-2.93-5.33-1.11-7.75
			c8.61-11.42,17.23-22.84,25.84-34.27c0.54-0.72,1.1-1.43,1.63-2.17c1.59-2.2,5.37-2.85,7.65-1.11
			C332.98,287.31,344.09,295.65,355.19,304.01z M349.5,330.99c0.75-1.05,1.5-2.11,1.95-3.34c0.3-0.81,0.57-1.63,0.71-2.5
			c0.26-1.6,0.09-3.15-0.47-4.65c-0.56-1.48-1.52-2.71-2.62-3.85c-1.57-1.61-3.49-2.42-5.68-2.63c-1.36-0.13-2.7,0.12-4.03,0.39
			c-0.26,0.05-0.33,0-0.36-0.29c-0.08-0.78-0.24-1.54-0.34-2.32c-0.3-2.24-1.39-4.06-3.1-5.46c-1.61-1.33-3.51-2.1-5.6-2.36
			c-2.03-0.25-3.88,0.19-5.64,1.2c-0.67,0.39-1.28,0.84-1.86,1.34c-1.13,0.99-2.21,2.04-2.96,3.37c-1.02,1.83-1.64,3.77-1.92,5.86
			c-0.27,2.06-0.21,4.1-0.02,6.15c0.19,2.05,0.59,4.06,1.12,6.04c0.35,1.31,0.74,2.61,1.2,3.87c0.48,1.31,1.06,2.58,1.61,3.87
			c0.29,0.68,0.67,1.25,1.49,1.36c1.29,0.17,2.57,0.43,3.86,0.52c1.71,0.12,3.42,0.2,5.13,0.12c2.19-0.1,4.36-0.26,6.52-0.72
			c2.26-0.48,4.44-1.12,6.49-2.2C346.79,333.84,348.32,332.63,349.5,330.99z M363.24,336.14c-0.19,0.26-0.32,0.42-0.44,0.58
			c-2.66,3.53-5.32,7.06-7.99,10.59c-1,1.32-1.99,2.65-3,3.96c-0.22,0.28-0.24,0.45,0.08,0.66c0.5,0.34,0.99,0.69,1.44,1.09
			c0.39,0.35,0.6,0.29,0.91-0.13c3.89-5.19,7.81-10.37,11.71-15.56c0.4-0.54,1.17-1.08,1.09-1.63c-0.08-0.58-1-0.87-1.53-1.31
			c-0.2-0.17-0.41-0.31-0.69-0.35c-1.56-0.23-3.12-0.47-4.68-0.73c-0.32-0.05-0.48,0-0.59,0.32c-0.17,0.48-0.36,0.95-0.59,1.4
			c-0.2,0.39-0.06,0.46,0.3,0.51C360.57,335.72,361.84,335.93,363.24,336.14z"/>
		<path class="st4" d="M349.5,330.99c-1.19,1.64-2.72,2.85-4.5,3.79c-2.05,1.08-4.23,1.72-6.49,2.2c-2.16,0.46-4.33,0.61-6.52,0.72
			c-1.72,0.08-3.43,0-5.13-0.12c-1.29-0.09-2.57-0.35-3.86-0.52c-0.82-0.11-1.21-0.68-1.49-1.36c-0.55-1.28-1.13-2.56-1.61-3.87
			c-0.46-1.27-0.85-2.57-1.2-3.87c-0.53-1.98-0.93-3.99-1.12-6.04c-0.19-2.05-0.25-4.1,0.02-6.15c0.28-2.08,0.9-4.03,1.92-5.86
			c0.74-1.33,1.83-2.37,2.96-3.37c0.57-0.5,1.18-0.95,1.86-1.34c1.76-1.02,3.61-1.45,5.64-1.2c2.1,0.26,3.99,1.02,5.6,2.36
			c1.71,1.41,2.79,3.23,3.1,5.46c0.11,0.77,0.26,1.54,0.34,2.32c0.03,0.29,0.11,0.34,0.36,0.29c1.33-0.27,2.68-0.52,4.03-0.39
			c2.19,0.21,4.11,1.02,5.68,2.63c1.1,1.14,2.06,2.36,2.62,3.85c0.57,1.5,0.73,3.05,0.47,4.65c-0.14,0.87-0.41,1.69-0.71,2.5
			C351,328.88,350.25,329.94,349.5,330.99z"/>
		<path class="st4" d="M363.24,336.14c-1.4-0.21-2.68-0.42-3.96-0.59c-0.37-0.05-0.5-0.12-0.3-0.51c0.23-0.45,0.42-0.92,0.59-1.4
			c0.11-0.32,0.27-0.37,0.59-0.32c1.56,0.26,3.12,0.5,4.68,0.73c0.28,0.04,0.49,0.18,0.69,0.35c0.53,0.44,1.44,0.72,1.53,1.31
			c0.08,0.55-0.69,1.09-1.09,1.63c-3.9,5.19-7.82,10.37-11.71,15.56c-0.31,0.41-0.52,0.47-0.91,0.13c-0.45-0.4-0.94-0.75-1.44-1.09
			c-0.32-0.22-0.29-0.38-0.08-0.66c1.01-1.31,2-2.64,3-3.96c2.66-3.53,5.32-7.06,7.99-10.59
			C362.93,336.56,363.05,336.4,363.24,336.14z"/>
	</g>
	<path class="st1" d="M144.04,235.79c1.19-0.59,2.33-1.36,3.59-1.74c3.04-0.9,5.75,0,8.14,1.95c2.61,2.11,4.23,4.96,5.8,7.85
		c1.1,2.01,2.32,3.96,3.51,5.92c0.25,0.42,0.64,0.75,1.02,1.18c0.85-1.24,1.62-2.41,2.45-3.54c2.45-3.31,5.09-6.44,8.63-8.65
		c2.01-1.26,4.18-2.04,6.61-1.65c2.7,0.43,4.58,2.01,5.79,4.4c0.22,0.43,0.46,0.64,0.94,0.73c3.59,0.69,6.04,3.15,6.71,6.76
		c0.12,0.67,0.41,1.03,1,1.37c2.91,1.7,4.48,4.28,4.64,7.64c0.04,0.9,0.28,1.49,0.95,2.15c2.58,2.53,3.16,5.64,2.25,9.06
		c-0.81,3.04-2.43,5.65-4.53,7.92c-4.29,4.63-8.95,8.89-13.69,13.04c-2.95,2.57-6.05,4.97-9.07,7.46c-0.26,0.22-0.51,0.54-0.6,0.86
		c-0.32,1.13-0.9,2.09-1.72,2.9c-2.01,2.01-4.03,4.02-6.07,6.01c-2.18,2.12-4.99,2.5-7.57,1.01c-0.54-0.31-1.04-0.74-1.49-1.19
		c-5.4-5.43-10.78-10.87-16.16-16.31c-2.76-2.79-2.73-6.43,0.06-9.2c1.73-1.72,3.47-3.42,5.19-5.15c0.98-0.99,1.97-1.96,3.41-2.35
		c-0.59-1.78-1.06-3.55-0.94-5.38c0.12-1.93,0.02-3.85-0.49-5.69c-0.98-3.57-2.03-7.13-3.19-10.64c-0.72-2.18-1.65-4.29-2.56-6.39
		c-0.26-0.59-0.78-1.08-1.2-1.6c-0.87-1.07-1.86-2.06-2.6-3.22c-0.88-1.38-0.79-2.9,0.03-4.34
		C143.26,236.56,143.65,236.17,144.04,235.79z M177.52,293.59c0.06-0.04,0.15-0.11,0.24-0.18c2.96-2.46,6.02-4.8,8.85-7.4
		c4.16-3.82,8.2-7.76,12.18-11.76c1.59-1.6,2.73-3.58,3.4-5.78c0.8-2.61,0.2-4.76-1.95-6.19c-1.16-0.77-1.47-1.68-1.32-3
		c0.31-2.77-0.99-4.99-3.49-5.92c-1.29-0.48-1.85-1.28-1.93-2.63c-0.17-2.95-1.76-4.58-4.68-4.76c-1.38-0.08-2.08-0.69-2.47-1.98
		c-0.83-2.71-3.22-3.82-5.77-2.56c-1.39,0.69-2.68,1.64-3.86,2.65c-3.12,2.69-5.4,6.08-7.62,9.5c-1.13,1.74-3.15,2.2-4.77,0.9
		c-1.1-0.89-2.18-1.91-2.95-3.08c-1.52-2.34-2.81-4.83-4.19-7.26c-1.04-1.85-2.22-3.6-3.85-5c-2.08-1.78-4.29-1.95-6.51-0.47
		c-0.68,0.45-0.75,0.67-0.22,1.28c0.59,0.68,1.26,1.3,1.88,1.96c0.43,0.46,0.98,0.88,1.23,1.43c2.34,5.17,4.36,10.45,5.83,15.94
		c0.78,2.91,1.43,5.85,1.28,8.89c-0.08,1.51,0.1,2.97,0.62,4.36c0.31,0.83,0.76,1.64,1.29,2.35c0.4,0.53,1.06,0.85,1.54,1.33
		c5.31,5.35,10.62,10.71,15.92,16.07C176.63,292.69,177.06,293.12,177.52,293.59z M156.01,296.26c2.76,2.78,5.51,5.57,8.27,8.35
		c1.03,1.04,2.27,1.03,3.31,0c1.98-1.95,3.95-3.91,5.92-5.86c1.2-1.19,1.22-2.36,0.03-3.56c-5.39-5.46-10.79-10.91-16.2-16.36
		c-1.2-1.21-2.35-1.22-3.56-0.03c-1.95,1.92-3.89,3.84-5.82,5.77c-1.21,1.21-1.22,2.34-0.02,3.55
		C150.62,290.82,153.32,293.54,156.01,296.26z"/>
	<g class="st1">
		<path d="M222.59,263.07c0.17-0.27,0.29-0.45,0.4-0.64c2.71-4.29,5.42-8.59,8.15-12.87c0.24-0.37,0.29-0.71,0.18-1.14
			c-0.32-1.28-0.7-2.57-0.87-3.88c-0.24-1.94-0.43-3.9-0.44-5.85c-0.01-2.99,0.43-5.94,1.31-8.8c0.38-1.24,0.84-2.46,1.36-3.65
			c0.69-1.57,1.41-3.15,2.25-4.65c1.92-3.44,4.54-6.29,7.64-8.71c2.43-1.9,5.12-3.35,7.97-4.47c2.66-1.05,5.47-1.61,8.29-2.04
			c2.63-0.4,5.29-0.37,7.95-0.15c2.84,0.23,5.64,0.73,8.35,1.58c1.95,0.61,3.85,1.43,5.74,2.22c2.46,1.03,4.82,2.29,6.91,3.96
			c1.14,0.91,2.21,1.91,3.23,2.94c1.19,1.21,2.33,2.47,3.43,3.76c0.66,0.78,1.19,1.66,1.76,2.51c1.3,1.95,2.38,4.03,3.28,6.19
			c1.05,2.53,1.86,5.14,2.29,7.86c0.24,1.53,0.47,3.08,0.53,4.63c0.09,2.04,0.02,4.09-0.28,6.12c-0.3,2.03-0.81,4.01-1.44,5.96
			c-0.83,2.56-2,4.94-3.59,7.09c-1.12,1.51-2.36,2.93-3.64,4.31c-0.96,1.04-2.01,2.04-3.13,2.9c-1.47,1.13-3.01,2.18-4.59,3.12
			c-1.2,0.71-2.48,1.31-3.79,1.78c-1.9,0.69-3.84,1.32-5.81,1.79c-1.79,0.43-3.63,0.6-5.48,0.66c-2.06,0.07-4.11,0-6.14-0.29
			c-2.25-0.33-4.48-0.8-6.61-1.63c-1.59-0.62-3.2-1.23-4.72-2c-1.7-0.86-3.34-1.85-4.94-2.89c-1.1-0.71-2.08-1.59-3.12-2.4
			c-0.01-0.01-0.03-0.02-0.04-0.04c-0.88-0.66-1.78-1.29-2.63-1.98c-0.64-0.52-1.36-0.66-2.14-0.69c-1.56-0.05-3.12-0.11-4.68-0.16
			c-2.85-0.09-5.7-0.17-8.55-0.27C225.56,263.23,224.14,263.15,222.59,263.07z M232.2,258.88c0.29,0.02,0.48,0.05,0.67,0.04
			c3.58-0.08,7.16-0.16,10.74-0.26c0.46-0.01,0.8,0.15,1.15,0.41c2.24,1.69,4.46,3.42,6.75,5.04c3.01,2.14,6.3,3.77,9.85,4.83
			c2.74,0.81,5.56,1.21,8.42,1.19c3.4-0.02,6.71-0.61,9.82-1.97c1.69-0.74,3.36-1.59,4.9-2.6c2.37-1.55,4.42-3.49,6.2-5.73
			c1.83-2.31,3.35-4.79,4.33-7.56c1.56-4.38,1.9-8.89,1.19-13.47c-0.75-4.81-2.52-9.23-5.31-13.24c-1.95-2.8-4.22-5.29-7.08-7.17
			c-1.93-1.27-3.93-2.47-6.01-3.46c-1.74-0.83-3.63-1.39-5.49-1.93c-4.31-1.24-8.72-1.56-13.15-0.94
			c-4.75,0.67-9.11,2.39-12.95,5.34c-1.65,1.27-3.21,2.68-4.42,4.35c-1.26,1.73-2.3,3.63-3.3,5.52c-1.39,2.62-2.12,5.48-2.48,8.41
			c-0.57,4.67,0.03,9.24,1.48,13.7c0.15,0.46,0.11,0.82-0.16,1.24c-1.61,2.51-3.19,5.03-4.78,7.55
			C232.46,258.38,232.36,258.59,232.2,258.88z"/>
		<path d="M268.74,236.83c2.26,1.15,2.6,4.17,1.5,5.99c-1.1,1.82-4.01,2.66-6.05,1.36c-2.03-1.28-2.57-4.17-1.38-6.05
			C263.99,236.26,267.01,235.43,268.74,236.83z"/>
		<path d="M283.78,246.34c2.05,0.98,2.55,4.08,1.36,5.97c-1.07,1.71-3.95,2.66-6.07,1.28c-1.98-1.28-2.52-4.22-1.34-6.02
			C278.91,245.78,281.79,244.81,283.78,246.34z"/>
		<path d="M253.83,227.41c2.24,1.14,2.54,4.21,1.45,6c-1.02,1.66-3.91,2.69-6.07,1.31c-2.08-1.32-2.4-4.39-1.38-6.02
			C248.81,227.12,251.93,225.86,253.83,227.41z"/>
	</g>
</g>
<g id="Calque_11">
	<path d="M203.33,382.43C232,339.28,260.67,296.14,289.34,253c3.82-5.75,11.65-7.6,15.92-3.64c1.68,1.55,3.19,3.37,4.45,5.28
		c57.26,86.54,114.49,173.11,171.71,259.68c3.5,5.29,3.57,10.28,0.29,14.56c-3.27,4.27-8.25,5.37-14.51,3.13
		c-54.83-19.59-109.66-39.17-164.46-58.82c-2.44-0.88-4.54-0.92-7.01-0.07c-54.94,18.79-109.92,37.48-164.87,56.25
		c-4.68,1.6-9.01,1.5-12.69-2c-3.41-3.24-4.4-7.35-2.84-11.84c0.52-1.51,1.47-2.89,2.37-4.24
		C146.24,468.32,174.79,425.37,203.33,382.43z M154.08,497.08c0.12,0.29,0.23,0.58,0.35,0.86c0.4-0.22,0.78-0.49,1.21-0.64
		c43.31-14.69,86.61-29.38,129.94-43.98c1.97-0.66,2.35-1.63,2.35-3.51c-0.03-50.25,0-100.5,0.01-150.74c0-0.79-0.19-1.58-0.35-2.88
		C242.83,363.52,198.46,430.3,154.08,497.08z M443.97,499.69c0.19-0.22,0.39-0.43,0.58-0.65c-44.53-67.39-89.06-134.78-133.6-202.17
		c-0.64,1.08-0.67,1.88-0.67,2.67c0.1,49.92,0.23,99.83,0.22,149.75c0,2.83,1.33,3.46,3.44,4.21c30.46,10.79,60.9,21.64,91.34,32.47
		C418.17,490.55,431.07,495.11,443.97,499.69z"/>
</g>
<g id="Calque_6" class="st0">
	<path class="st1" d="M21.05,655.5c0.55-0.05,1.11-0.18,1.66-0.14c1.32,0.1,2.24,0.86,2.88,1.98c0.7,1.22,0.9,2.57,1.08,3.93
		c0.13,0.95,0.31,1.89,0.48,2.84c0.04,0.2,0.14,0.39,0.22,0.61c0.52-0.35,0.99-0.7,1.49-1.01c1.45-0.92,2.95-1.75,4.66-2.08
		c0.97-0.19,1.94-0.17,2.82,0.35c0.99,0.57,1.48,1.47,1.6,2.59c0.02,0.2,0.08,0.32,0.26,0.43c1.3,0.81,1.88,2.14,1.6,3.64
		c-0.05,0.28,0.01,0.46,0.18,0.69c0.88,1.1,1.1,2.34,0.66,3.68c-0.12,0.36-0.11,0.62,0.05,0.98c0.62,1.37,0.38,2.68-0.48,3.87
		c-0.77,1.06-1.8,1.84-2.96,2.41c-2.37,1.16-4.82,2.12-7.3,3.03c-1.54,0.56-3.11,1.03-4.66,1.55c-0.13,0.04-0.28,0.13-0.36,0.24
		c-0.29,0.39-0.67,0.68-1.11,0.87c-1.09,0.48-2.18,0.96-3.27,1.43c-1.17,0.5-2.32,0.23-3.1-0.74c-0.17-0.2-0.3-0.44-0.4-0.69
		c-1.29-2.93-2.57-5.86-3.85-8.79c-0.66-1.5-0.1-2.92,1.4-3.58c0.93-0.41,1.87-0.81,2.8-1.23c0.53-0.24,1.06-0.47,1.68-0.41
		c0.04-0.78,0.12-1.54,0.44-2.24c0.34-0.74,0.59-1.5,0.66-2.29c0.15-1.54,0.28-3.09,0.35-4.63c0.05-0.96,0-1.92-0.04-2.88
		c-0.01-0.27-0.14-0.54-0.23-0.8c-0.18-0.55-0.42-1.08-0.53-1.65c-0.14-0.67,0.13-1.25,0.66-1.69
		C20.63,655.68,20.84,655.59,21.05,655.5z M25.43,683.07c0.03-0.01,0.08-0.02,0.12-0.03c1.52-0.51,3.07-0.97,4.56-1.56
		c2.19-0.86,4.36-1.8,6.52-2.76c0.86-0.38,1.6-0.99,2.19-1.74c0.7-0.9,0.79-1.82,0.17-2.71c-0.34-0.48-0.32-0.88-0.07-1.37
		c0.54-1.03,0.36-2.09-0.47-2.83c-0.43-0.38-0.53-0.78-0.36-1.32c0.38-1.18,0-2.05-1.11-2.56c-0.52-0.24-0.71-0.58-0.67-1.14
		c0.08-1.18-0.68-1.97-1.87-1.86c-0.64,0.06-1.29,0.24-1.9,0.45c-1.62,0.58-3.02,1.56-4.4,2.56c-0.7,0.51-1.56,0.38-1.99-0.37
		c-0.3-0.51-0.57-1.07-0.69-1.64c-0.24-1.14-0.37-2.31-0.54-3.46c-0.13-0.88-0.32-1.74-0.75-2.53c-0.54-1.01-1.38-1.4-2.47-1.16
		c-0.33,0.07-0.39,0.15-0.28,0.47c0.13,0.36,0.3,0.7,0.44,1.05c0.1,0.24,0.25,0.49,0.26,0.74c0.14,2.37,0.13,4.73-0.12,7.09
		c-0.13,1.25-0.32,2.5-0.84,3.66c-0.26,0.58-0.41,1.17-0.41,1.79c0,0.37,0.05,0.75,0.15,1.11c0.08,0.27,0.29,0.49,0.4,0.75
		c1.27,2.88,2.53,5.77,3.8,8.66C25.22,682.58,25.32,682.82,25.43,683.07z M16.64,680.88c0.66,1.5,1.31,3,1.97,4.5
		c0.25,0.56,0.73,0.74,1.29,0.5c1.06-0.46,2.13-0.93,3.19-1.4c0.65-0.28,0.83-0.74,0.55-1.39c-1.28-2.94-2.57-5.88-3.86-8.81
		c-0.29-0.65-0.73-0.83-1.38-0.55c-1.05,0.46-2.09,0.91-3.14,1.37c-0.65,0.29-0.83,0.73-0.54,1.38
		C15.36,677.95,16,679.41,16.64,680.88z"/>
</g>
<g id="Calque_6_-_copie" class="st0">
	<path class="st1" d="M21.05,655.5c0.55-0.05,1.11-0.18,1.66-0.14c1.32,0.1,2.24,0.86,2.88,1.98c0.7,1.22,0.9,2.57,1.08,3.93
		c0.13,0.95,0.31,1.89,0.48,2.84c0.04,0.2,0.14,0.39,0.22,0.61c0.52-0.35,0.99-0.7,1.49-1.01c1.45-0.92,2.95-1.75,4.66-2.08
		c0.97-0.19,1.94-0.17,2.82,0.35c0.99,0.57,1.48,1.47,1.6,2.59c0.02,0.2,0.08,0.32,0.26,0.43c1.3,0.81,1.88,2.14,1.6,3.64
		c-0.05,0.28,0.01,0.46,0.18,0.69c0.88,1.1,1.1,2.34,0.66,3.68c-0.12,0.36-0.11,0.62,0.05,0.98c0.62,1.37,0.38,2.68-0.48,3.87
		c-0.77,1.06-1.8,1.84-2.96,2.41c-2.37,1.16-4.82,2.12-7.3,3.03c-1.54,0.56-3.11,1.03-4.66,1.55c-0.13,0.04-0.28,0.13-0.36,0.24
		c-0.29,0.39-0.67,0.68-1.11,0.87c-1.09,0.48-2.18,0.96-3.27,1.43c-1.17,0.5-2.32,0.23-3.1-0.74c-0.17-0.2-0.3-0.44-0.4-0.69
		c-1.29-2.93-2.57-5.86-3.85-8.79c-0.66-1.5-0.1-2.92,1.4-3.58c0.93-0.41,1.87-0.81,2.8-1.23c0.53-0.24,1.06-0.47,1.68-0.41
		c0.04-0.78,0.12-1.54,0.44-2.24c0.34-0.74,0.59-1.5,0.66-2.29c0.15-1.54,0.28-3.09,0.35-4.63c0.05-0.96,0-1.92-0.04-2.88
		c-0.01-0.27-0.14-0.54-0.23-0.8c-0.18-0.55-0.42-1.08-0.53-1.65c-0.14-0.67,0.13-1.25,0.66-1.69
		C20.63,655.68,20.84,655.59,21.05,655.5z M25.43,683.07c0.03-0.01,0.08-0.02,0.12-0.03c1.52-0.51,3.07-0.97,4.56-1.56
		c2.19-0.86,4.36-1.8,6.52-2.76c0.86-0.38,1.6-0.99,2.19-1.74c0.7-0.9,0.79-1.82,0.17-2.71c-0.34-0.48-0.32-0.88-0.07-1.37
		c0.54-1.03,0.36-2.09-0.47-2.83c-0.43-0.38-0.53-0.78-0.36-1.32c0.38-1.18,0-2.05-1.11-2.56c-0.52-0.24-0.71-0.58-0.67-1.14
		c0.08-1.18-0.68-1.97-1.87-1.86c-0.64,0.06-1.29,0.24-1.9,0.45c-1.62,0.58-3.02,1.56-4.4,2.56c-0.7,0.51-1.56,0.38-1.99-0.37
		c-0.3-0.51-0.57-1.07-0.69-1.64c-0.24-1.14-0.37-2.31-0.54-3.46c-0.13-0.88-0.32-1.74-0.75-2.53c-0.54-1.01-1.38-1.4-2.47-1.16
		c-0.33,0.07-0.39,0.15-0.28,0.47c0.13,0.36,0.3,0.7,0.44,1.05c0.1,0.24,0.25,0.49,0.26,0.74c0.14,2.37,0.13,4.73-0.12,7.09
		c-0.13,1.25-0.32,2.5-0.84,3.66c-0.26,0.58-0.41,1.17-0.41,1.79c0,0.37,0.05,0.75,0.15,1.11c0.08,0.27,0.29,0.49,0.4,0.75
		c1.27,2.88,2.53,5.77,3.8,8.66C25.22,682.58,25.32,682.82,25.43,683.07z M16.64,680.88c0.66,1.5,1.31,3,1.97,4.5
		c0.25,0.56,0.73,0.74,1.29,0.5c1.06-0.46,2.13-0.93,3.19-1.4c0.65-0.28,0.83-0.74,0.55-1.39c-1.28-2.94-2.57-5.88-3.86-8.81
		c-0.29-0.65-0.73-0.83-1.38-0.55c-1.05,0.46-2.09,0.91-3.14,1.37c-0.65,0.29-0.83,0.73-0.54,1.38
		C15.36,677.95,16,679.41,16.64,680.88z"/>
</g>
</svg>
